<?xml version="1.0" encoding="UTF-8"?>
<svg xmlns="http://www.w3.org/2000/svg" xmlns:xlink="http://www.w3.org/1999/xlink" width="192.6pt" height="50.04pt" viewBox="16.26 14.58 192.6 50.04">
<path fill-rule="nonzero" fill="rgb(13.699341%, 9.399414%, 8.198547%)" fill-opacity="1" stroke-width="0.25" stroke-linecap="butt" stroke-linejoin="miter" stroke="rgb(13.699341%, 9.399414%, 8.198547%)" stroke-opacity="1" stroke-miterlimit="10" d="M 74.359375 43.703125 L 64.039062 43.703125 L 64.039062 45.070312 L 74.359375 45.070312 Z M 74.394531 37.128906 L 64.015625 37.128906 L 64.015625 38.519531 L 74.394531 38.519531 Z M 75.21875 51.476562 L 75.21875 36.011719 L 73.746094 36.011719 L 73.746094 50.078125 L 64.515625 50.078125 L 64.515625 35.921875 L 63.09375 35.921875 L 63.09375 51.476562 Z M 75.21875 51.476562 " transform="matrix(1, 0, 0, -1, 0, 79)"/>
<path fill-rule="nonzero" fill="rgb(13.699341%, 9.399414%, 8.198547%)" fill-opacity="1" stroke-width="0.25" stroke-linecap="butt" stroke-linejoin="miter" stroke="rgb(13.699341%, 9.399414%, 8.198547%)" stroke-opacity="1" stroke-miterlimit="10" d="M -0.00178125 -0.001525 L -0.00178125 -9.603088 C -0.00178125 -10.32965 -0.181469 -10.657775 -0.736156 -10.849181 C -1.283031 -11.028869 -2.212719 -11.036681 -3.806469 -11.036681 C -3.872875 -10.716369 -4.040844 -10.26715 -4.224438 -9.962463 C -3.072094 -10.001525 -1.997875 -9.989806 -1.704906 -9.970275 C -1.396313 -9.958556 -1.286938 -9.876525 -1.286938 -9.595275 L -1.286938 -0.001525 Z M -2.708813 2.2016 C -3.322094 1.2016 -4.04475 0.0883187 -4.618969 -0.614806 L -5.771313 -0.286681 C -5.224438 0.478944 -4.54475 1.7016 -4.193188 2.541444 Z M -5.216625 -1.356994 C -4.021313 -2.177306 -2.3885 -3.3609 -1.556469 -4.083556 L -2.384594 -5.0484 C -3.193188 -4.286681 -4.802563 -3.064025 -6.021313 -2.185119 Z M -6.8885 5.939881 C -6.497875 5.182069 -6.072094 4.197694 -5.861156 3.568787 L -7.259594 3.1391 C -7.447094 3.79535 -7.872875 4.818787 -8.224438 5.588319 Z M -3.759594 -4.536681 L -3.759594 -8.76715 L -9.85725 -8.76715 L -9.85725 -7.739806 L -4.927563 -7.739806 L -4.927563 -5.57965 L -9.85725 -5.57965 L -9.85725 -4.536681 Z M -9.376781 -9.638244 L -10.568188 -9.638244 L -10.568188 -4.536681 L -9.376781 -4.536681 Z M -10.064281 2.658631 C -9.658031 2.002381 -9.126781 1.111756 -8.880688 0.588319 L -10.165844 0.060975 C -10.411938 0.627381 -10.900219 1.553162 -11.310375 2.23285 Z M -8.040844 -1.970275 C -9.017406 -3.087463 -10.48225 -4.337463 -11.658031 -5.130431 C -11.767406 -4.899963 -12.095531 -4.2984 -12.302563 -4.032775 C -11.201 -3.353088 -9.904125 -2.396056 -9.064281 -1.481994 Z M -0.560375 -0.001525 L -0.560375 -1.169494 L -12.85725 -1.169494 L -12.85725 -11.106994 L -14.189281 -11.106994 L -14.189281 -0.001525 Z M 1.01775 2.67035 L -15.240063 2.67035 L -15.240063 3.881287 L 1.01775 3.881287 Z M 1.01775 2.67035 " transform="matrix(1, 0, 0, -1, 94.701, 32.1391)"/>
<path fill-rule="nonzero" fill="rgb(13.699341%, 9.399414%, 8.198547%)" fill-opacity="1" stroke-width="0.25" stroke-linecap="butt" stroke-linejoin="miter" stroke="rgb(13.699341%, 9.399414%, 8.198547%)" stroke-opacity="1" stroke-miterlimit="10" d="M 111.351562 43.703125 L 101.027344 43.703125 L 101.027344 45.070312 L 111.351562 45.070312 Z M 111.386719 37.128906 L 101.007812 37.128906 L 101.007812 38.519531 L 111.386719 38.519531 Z M 112.207031 51.476562 L 112.207031 36.011719 L 110.734375 36.011719 L 110.734375 50.078125 L 101.503906 50.078125 L 101.503906 35.921875 L 100.082031 35.921875 L 100.082031 51.476562 Z M 112.207031 51.476562 " transform="matrix(1, 0, 0, -1, 0, 79)"/>
<path fill-rule="nonzero" fill="rgb(13.699341%, 9.399414%, 8.198547%)" fill-opacity="1" d="M 133.164062 39.097656 C 132.804688 39.378906 132.320312 39.910156 132.078125 40.296875 C 129.210938 38.445312 126.726562 34.886719 125.332031 31.058594 L 126.570312 30.6875 C 127.828125 34.152344 130.347656 37.496094 133.164062 39.097656 M 125.277344 43.277344 L 123.820312 43.277344 L 123.820312 26.285156 L 125.277344 26.285156 Z M 129.601562 39.820312 L 119.5 39.820312 L 119.5 38.414062 L 129.601562 38.414062 Z M 132.648438 31.574219 L 116.511719 31.574219 L 116.511719 30.167969 L 132.648438 30.167969 Z M 123.738281 31.011719 C 122.328125 34.871094 119.820312 38.410156 117.027344 40.34375 C 116.789062 39.996094 116.34375 39.492188 116.007812 39.222656 C 118.707031 37.558594 121.214844 34.109375 122.480469 30.632812 Z M 123.738281 31.011719 "/>
<path fill="none" stroke-width="0.25" stroke-linecap="butt" stroke-linejoin="miter" stroke="rgb(13.699341%, 9.399414%, 8.198547%)" stroke-opacity="1" stroke-miterlimit="10" d="M 0.0011625 -0.00145625 C -0.358213 -0.282706 -0.842588 -0.813956 -1.084775 -1.200675 C -3.951963 0.650888 -6.436338 4.209481 -7.830869 8.037606 L -6.592588 8.4087 C -5.334775 4.943856 -2.815244 1.600106 0.0011625 -0.00145625 Z M -7.885556 -4.181144 L -9.342588 -4.181144 L -9.342588 12.811044 L -7.885556 12.811044 Z M -3.561338 -0.724112 L -13.6629 -0.724112 L -13.6629 0.682138 L -3.561338 0.682138 Z M -0.514463 7.521981 L -16.651181 7.521981 L -16.651181 8.928231 L -0.514463 8.928231 Z M -9.424619 8.084481 C -10.834775 4.225106 -13.342588 0.686044 -16.135556 -1.24755 C -16.373838 -0.899894 -16.81915 -0.395987 -17.155088 -0.126456 C -14.455869 1.537606 -11.948056 4.986825 -10.682431 8.463388 Z M -9.424619 8.084481 " transform="matrix(1, 0, 0, -1, 133.1629, 39.0962)"/>
<path fill-rule="nonzero" fill="rgb(13.699341%, 9.399414%, 8.198547%)" fill-opacity="1" d="M 146.019531 28.636719 C 146.742188 28.953125 147.601562 29.472656 148.035156 29.894531 L 147.367188 30.640625 C 146.941406 30.203125 146.085938 29.652344 145.375 29.308594 Z M 144.324219 28.847656 C 144.5625 34.074219 145.378906 38.960938 147.175781 39.242188 C 147.4375 39.308594 147.617188 38.523438 147.738281 37.316406 C 147.96875 37.542969 148.398438 37.839844 148.65625 37.957031 C 148.402344 39.984375 147.761719 40.71875 146.785156 40.363281 C 144.234375 39.816406 143.480469 34.5625 143.136719 28.847656 Z M 147.726562 32.957031 C 146.796875 36.453125 144.953125 39.03125 142.398438 40.683594 C 142.234375 40.457031 141.828125 40.007812 141.585938 39.804688 C 144.09375 38.339844 145.796875 35.921875 146.605469 32.734375 Z M 139.304688 35.785156 L 141.421875 35.785156 L 141.421875 33.910156 L 139.304688 33.910156 Z M 142.445312 36.640625 L 138.316406 36.640625 L 138.316406 33.054688 L 142.445312 33.054688 Z M 148.496094 31.875 L 137.667969 31.875 L 137.667969 30.828125 L 148.496094 30.828125 Z M 143.0625 37.410156 L 143.105469 38.386719 C 141.179688 38.765625 139.203125 39.160156 137.667969 39.449219 L 137.476562 38.382812 C 138.90625 38.15625 140.976562 37.796875 143.0625 37.410156 M 150.179688 42.476562 L 136.148438 42.476562 L 136.148438 41.210938 L 150.179688 41.210938 Z M 150.789062 27.121094 L 150.789062 43.34375 L 149.414062 43.34375 L 149.414062 28.386719 L 136.65625 28.386719 L 136.65625 43.34375 L 135.328125 43.34375 L 135.328125 27.121094 Z M 150.789062 27.121094 "/>
<path fill="none" stroke-width="0.25" stroke-linecap="butt" stroke-linejoin="miter" stroke="rgb(13.699341%, 9.399414%, 8.198547%)" stroke-opacity="1" stroke-miterlimit="10" d="M -0.00076875 -0.00001875 C 0.721887 -0.316425 1.581262 -0.835956 2.014856 -1.257831 L 1.346887 -2.003925 C 0.921106 -1.566425 0.0656375 -1.015644 -0.6453 -0.671894 Z M -1.696081 -0.210956 C -1.4578 -5.437519 -0.641394 -10.324238 1.155481 -10.605488 C 1.4172 -10.671894 1.596887 -9.886738 1.717981 -8.679706 C 1.94845 -8.906269 2.378137 -9.203144 2.63595 -9.320331 C 2.382044 -11.347675 1.741419 -12.08205 0.764856 -11.726581 C -1.785925 -11.179706 -2.539831 -5.9258 -2.883581 -0.210956 Z M 1.706262 -4.320331 C 0.776575 -7.816425 -1.067175 -10.39455 -3.621863 -12.046894 C -3.785925 -11.820331 -4.192175 -11.371113 -4.434363 -11.167988 C -1.92655 -9.703144 -0.223425 -7.285175 0.585169 -4.097675 Z M -6.715613 -7.148456 L -4.598425 -7.148456 L -4.598425 -5.273456 L -6.715613 -5.273456 Z M -3.574988 -8.003925 L -7.703894 -8.003925 L -7.703894 -4.417988 L -3.574988 -4.417988 Z M 2.475794 -3.2383 L -8.352331 -3.2383 L -8.352331 -2.191425 L 2.475794 -2.191425 Z M -2.9578 -8.773456 L -2.914831 -9.750019 C -4.840613 -10.128925 -6.817175 -10.523456 -8.352331 -10.812519 L -8.543738 -9.746113 C -7.11405 -9.51955 -5.043738 -9.160175 -2.9578 -8.773456 Z M 4.159387 -13.839863 L -9.871863 -13.839863 L -9.871863 -12.574238 L 4.159387 -12.574238 Z M 4.768762 1.515606 L 4.768762 -14.70705 L 3.393762 -14.70705 L 3.393762 0.249981 L -9.36405 0.249981 L -9.36405 -14.70705 L -10.692175 -14.70705 L -10.692175 1.515606 Z M 4.768762 1.515606 " transform="matrix(1, 0, 0, -1, 146.0203, 28.6367)"/>
<path fill-rule="nonzero" fill="rgb(13.699341%, 9.399414%, 8.198547%)" fill-opacity="1" stroke-width="0.25" stroke-linecap="butt" stroke-linejoin="miter" stroke="rgb(13.699341%, 9.399414%, 8.198547%)" stroke-opacity="1" stroke-miterlimit="10" d="M 162.253906 37.035156 L 160.78125 37.035156 L 160.78125 52.675781 L 162.253906 52.675781 Z M 168.675781 45.417969 L 154.457031 45.417969 L 154.457031 46.777344 L 168.675781 46.777344 Z M 169.863281 36.546875 L 153.273438 36.546875 L 153.273438 37.90625 L 169.863281 37.90625 Z M 169.863281 36.546875 " transform="matrix(1, 0, 0, -1, 0, 79)"/>
<path fill-rule="nonzero" fill="rgb(13.699341%, 9.399414%, 8.198547%)" fill-opacity="1" stroke-width="0.25" stroke-linecap="butt" stroke-linejoin="miter" stroke="rgb(13.699341%, 9.399414%, 8.198547%)" stroke-opacity="1" stroke-miterlimit="10" d="M 0.0001875 0.0009 L 0.0001875 -14.417069 C 0.0001875 -15.256912 -0.1795 -15.694412 -0.730281 -15.9366 C -1.281062 -16.163162 -2.206844 -16.194412 -3.620906 -16.1866 C -3.671687 -15.815506 -3.855281 -15.174881 -4.058406 -14.792069 C -3.038875 -14.819412 -2.050594 -14.819412 -1.749812 -14.807694 C -1.46075 -14.795975 -1.370906 -14.698319 -1.370906 -14.417069 L -1.370906 0.0009 Z M -0.824031 -3.553787 L -6.058406 -3.553787 L -6.058406 -2.565506 L -0.824031 -2.565506 Z M -5.226375 -15.870194 L -6.484187 -15.870194 L -6.484187 -7.753006 L -5.226375 -7.753006 Z M -0.695125 -1.057694 L -5.58575 -1.057694 L -5.58575 -5.1866 L -0.695125 -5.1866 L -0.695125 -6.2491 L -6.906062 -6.2491 L -6.906062 0.0009 L -0.695125 0.0009 Z M -3.117 -8.538162 L -12.296687 -8.538162 L -12.296687 -7.397537 L -3.117 -7.397537 Z M -9.066219 -7.8116 L -9.066219 -11.182694 C -9.066219 -12.3116 -9.519344 -14.733475 -11.601375 -16.139725 C -11.800594 -15.881912 -12.222469 -15.491287 -12.52325 -15.299881 C -10.667781 -14.159256 -10.281062 -12.206131 -10.281062 -11.174881 L -10.281062 -7.8116 Z M -2.722469 -11.733475 L -12.636531 -11.733475 L -12.636531 -10.553787 L -2.722469 -10.553787 Z M -8.546687 0.0009 L -8.546687 -6.225662 L -14.464656 -6.225662 L -14.464656 -5.163162 L -9.851375 -5.163162 L -9.851375 -1.057694 L -14.464656 -1.057694 L -14.464656 0.0009 Z M -9.394344 -3.553787 L -14.589656 -3.553787 L -14.589656 -2.565506 L -9.394344 -2.565506 Z M -13.937312 -16.237381 L -15.300594 -16.237381 L -15.300594 0.0009 L -13.937312 0.0009 Z M -13.937312 -16.237381 " transform="matrix(1, 0, 0, -1, 187.742, 27.0634)"/>
<path fill-rule="nonzero" fill="rgb(13.699341%, 9.399414%, 8.198547%)" fill-opacity="1" d="M 206.582031 28.96875 C 205.6875 29.808594 204.492188 30.691406 203.574219 31.265625 L 202.726562 30.625 C 203.613281 30.015625 204.867188 28.984375 205.5625 28.257812 Z M 203.644531 31.828125 L 203.644531 34.75 C 203.644531 35.179688 203.691406 35.300781 203.945312 35.300781 L 205.328125 35.300781 C 205.570312 35.300781 206 35.289062 206.21875 35.238281 C 206.230469 35.523438 206.265625 35.933594 206.304688 36.214844 C 206.09375 36.28125 205.71875 36.285156 205.351562 36.285156 L 203.8125 36.285156 C 202.6875 36.285156 202.460938 35.851562 202.460938 34.730469 L 202.460938 31.828125 Z M 204.375 27.113281 C 203.472656 27.960938 202.3125 28.859375 201.425781 29.457031 L 200.601562 28.8125 C 201.460938 28.191406 202.671875 27.144531 203.34375 26.394531 Z M 203.074219 32.925781 L 199.234375 32.925781 L 199.234375 31.820312 L 203.074219 31.820312 Z M 207.148438 32.332031 C 206.859375 32.605469 206.492188 33.089844 206.300781 33.421875 C 202.765625 32.332031 199.929688 29.894531 198.445312 26.65625 L 199.5625 26.304688 C 200.894531 29.171875 203.710938 31.421875 207.148438 32.332031 M 198.542969 38.351562 C 200.769531 39.5625 203.78125 41.328125 205.332031 42.417969 L 204.613281 43.324219 C 203.121094 42.238281 200.121094 40.382812 197.875 39.117188 Z M 204.265625 38.195312 L 197.875 38.195312 L 197.875 37.179688 L 204.265625 37.179688 Z M 199.9375 31.820312 L 199.9375 33.292969 C 199.9375 34.496094 199.554688 35.882812 197.90625 36.828125 C 197.726562 36.589844 197.269531 36.132812 197.007812 35.964844 C 198.492188 35.171875 198.742188 34.164062 198.742188 33.261719 L 198.742188 31.820312 Z M 204.210938 37.179688 L 204.4375 37.136719 L 205.222656 37.449219 C 203.949219 40.714844 200.972656 42.453125 197.625 43.300781 C 197.503906 43 197.226562 42.539062 197 42.273438 C 200.042969 41.632812 202.894531 40.023438 203.960938 37.367188 L 203.960938 37.179688 Z M 196.972656 31.878906 L 196.972656 36.03125 L 195.71875 36.03125 L 195.71875 32.988281 L 192.625 32.988281 L 192.625 31.878906 Z M 196.191406 34.933594 L 196.191406 36.03125 L 192.367188 36.03125 L 192.558594 34.933594 Z M 197.003906 37.949219 C 197.003906 37.949219 196.984375 38.316406 196.960938 38.5 C 196.726562 41.074219 196.503906 42.179688 196.046875 42.625 C 195.71875 42.949219 195.378906 43.058594 194.816406 43.078125 C 194.335938 43.121094 193.359375 43.109375 192.351562 43.058594 C 192.324219 42.679688 192.15625 42.183594 191.941406 41.855469 C 192.957031 41.941406 193.96875 41.960938 194.320312 41.960938 C 194.660156 41.960938 194.851562 41.941406 195.003906 41.796875 C 195.328125 41.523438 195.539062 40.535156 195.726562 38.132812 L 195.726562 37.949219 Z M 197.042969 28.183594 L 191.851562 28.183594 L 191.851562 27.050781 L 197.042969 27.050781 Z M 196.078125 37.949219 L 196.078125 39.019531 L 191.804688 39.019531 L 192.011719 37.949219 Z M 193.191406 34.933594 C 193.023438 36.304688 192.789062 37.972656 192.570312 39.019531 L 191.386719 39.019531 C 191.617188 37.925781 191.875 36.25 192.027344 34.933594 Z M 192.167969 28.5 C 193.019531 29 194.074219 29.769531 194.574219 30.320312 L 193.726562 31.164062 C 193.246094 30.59375 192.222656 29.789062 191.359375 29.25 Z M 196.894531 27.050781 L 197.125 26.992188 L 197.988281 27.425781 C 196.617188 30.527344 193.5625 32.597656 190.566406 33.644531 C 190.398438 33.328125 190.058594 32.851562 189.808594 32.609375 C 192.582031 31.765625 195.523438 29.796875 196.652344 27.285156 L 196.652344 27.050781 Z M 196.894531 27.050781 "/>
<path fill="none" stroke-width="0.25" stroke-linecap="butt" stroke-linejoin="miter" stroke="rgb(13.699341%, 9.399414%, 8.198547%)" stroke-opacity="1" stroke-miterlimit="10" d="M 0.00023125 -0.00105 C -0.8943 -0.840894 -2.089613 -1.723706 -3.007581 -2.297925 L -3.855238 -1.6573 C -2.968519 -1.047925 -1.714613 -0.016675 -1.0193 0.709887 Z M -2.937269 -2.860425 L -2.937269 -5.7823 C -2.937269 -6.211988 -2.890394 -6.333081 -2.636488 -6.333081 L -1.253675 -6.333081 C -1.011488 -6.333081 -0.5818 -6.321363 -0.36305 -6.270581 C -0.351331 -6.555738 -0.316175 -6.965894 -0.277113 -7.247144 C -0.48805 -7.31355 -0.86305 -7.317456 -1.230238 -7.317456 L -2.7693 -7.317456 C -3.8943 -7.317456 -4.120863 -6.883863 -4.120863 -5.762769 L -4.120863 -2.860425 Z M -2.2068 1.854419 C -3.109144 1.006762 -4.2693 0.108325 -5.156019 -0.489331 L -5.980238 0.1552 C -5.120863 0.776294 -3.909925 1.823169 -3.23805 2.573169 Z M -3.507581 -3.958081 L -7.347425 -3.958081 L -7.347425 -2.852613 L -3.507581 -2.852613 Z M 0.566637 -3.364331 C 0.277575 -3.637769 -0.0896125 -4.122144 -0.281019 -4.454175 C -3.816175 -3.364331 -6.652113 -0.926831 -8.136488 2.31145 L -7.0193 2.663012 C -5.687269 -0.204175 -2.870863 -2.454175 0.566637 -3.364331 Z M -8.038831 -9.383863 C -5.812269 -10.5948 -2.80055 -12.360425 -1.249769 -13.450269 L -1.968519 -14.356519 C -3.460706 -13.270581 -6.460706 -11.415113 -8.7068 -10.149488 Z M -2.316175 -9.227613 L -8.7068 -9.227613 L -8.7068 -8.211988 L -2.316175 -8.211988 Z M -6.6443 -2.852613 L -6.6443 -4.325269 C -6.6443 -5.528394 -7.027113 -6.915113 -8.67555 -7.860425 C -8.855238 -7.622144 -9.312269 -7.165113 -9.573988 -6.997144 C -8.089613 -6.204175 -7.839613 -5.196363 -7.839613 -4.294019 L -7.839613 -2.852613 Z M -2.370863 -8.211988 L -2.1443 -8.169019 L -1.359144 -8.481519 C -2.632581 -11.747144 -5.609144 -13.485425 -8.9568 -14.333081 C -9.077894 -14.0323 -9.355238 -13.571363 -9.5818 -13.305738 C -6.538831 -12.665113 -3.687269 -11.055738 -2.620863 -8.399488 L -2.620863 -8.211988 Z M -9.609144 -2.911206 L -9.609144 -7.06355 L -10.86305 -7.06355 L -10.86305 -4.020581 L -13.9568 -4.020581 L -13.9568 -2.911206 Z M -10.390394 -5.965894 L -10.390394 -7.06355 L -14.214613 -7.06355 L -14.023206 -5.965894 Z M -9.577894 -8.981519 C -9.577894 -8.981519 -9.597425 -9.348706 -9.620863 -9.5323 C -9.855238 -12.106519 -10.077894 -13.211988 -10.534925 -13.6573 C -10.86305 -13.981519 -11.202894 -14.090894 -11.765394 -14.110425 C -12.245863 -14.153394 -13.222425 -14.141675 -14.230238 -14.090894 C -14.257581 -13.711988 -14.42555 -13.215894 -14.640394 -12.887769 C -13.624769 -12.973706 -12.61305 -12.993238 -12.261488 -12.993238 C -11.921644 -12.993238 -11.730238 -12.973706 -11.577894 -12.829175 C -11.253675 -12.555738 -11.042738 -11.567456 -10.855238 -9.165113 L -10.855238 -8.981519 Z M -9.538831 0.784106 L -14.730238 0.784106 L -14.730238 1.916919 L -9.538831 1.916919 Z M -10.503675 -8.981519 L -10.503675 -10.051831 L -14.777113 -10.051831 L -14.570081 -8.981519 Z M -13.390394 -5.965894 C -13.558363 -7.336988 -13.792738 -9.004956 -14.011488 -10.051831 L -15.195081 -10.051831 C -14.964613 -8.958081 -14.7068 -7.2823 -14.554456 -5.965894 Z M -14.413831 0.4677 C -13.562269 -0.0323 -12.507581 -0.801831 -12.007581 -1.352613 L -12.855238 -2.196363 C -13.335706 -1.62605 -14.359144 -0.821363 -15.222425 -0.2823 Z M -9.687269 1.916919 L -9.4568 1.975512 L -8.593519 1.541919 C -9.964613 -1.559644 -13.0193 -3.629956 -16.015394 -4.676831 C -16.183363 -4.360425 -16.523206 -3.883863 -16.773206 -3.641675 C -13.999769 -2.797925 -11.058363 -0.829175 -9.929456 1.682544 L -9.929456 1.916919 Z M -9.687269 1.916919 " transform="matrix(1, 0, 0, -1, 206.5818, 28.9677)"/>
<path fill-rule="nonzero" fill="rgb(13.699341%, 9.399414%, 8.198547%)" fill-opacity="1" d="M 68.796875 52.070312 C 70.253906 53.261719 71.863281 54.984375 72.578125 56.132812 L 72.199219 56.398438 C 71.5 55.222656 69.917969 53.5 68.460938 52.296875 Z M 70.871094 61.988281 L 62.828125 61.988281 L 62.828125 61.566406 L 70.871094 61.566406 Z M 71.078125 57.183594 L 71.078125 62.746094 L 70.660156 62.746094 L 70.660156 57.589844 L 63.011719 57.589844 L 63.011719 62.800781 L 62.589844 62.800781 L 62.589844 57.183594 Z M 61.554688 55.417969 L 61.988281 55.210938 L 71.289062 54.664062 C 71.304688 54.773438 71.316406 54.941406 71.359375 55.027344 C 62.550781 55.574219 61.917969 55.613281 61.554688 55.753906 Z M 61.414062 55.304688 C 61.667969 55.265625 62.058594 54.929688 62.535156 54.453125 C 63.066406 53.960938 64.816406 52.113281 66.050781 50.320312 L 66.457031 50.503906 C 65 52.433594 63.460938 54.199219 61.945312 55.476562 L 61.945312 55.488281 C 61.945312 55.488281 61.554688 55.628906 61.554688 55.753906 C 61.539062 55.644531 61.46875 55.417969 61.414062 55.304688 "/>
<path fill="none" stroke-width="0.25" stroke-linecap="round" stroke-linejoin="round" stroke="rgb(13.699341%, 9.399414%, 8.198547%)" stroke-opacity="1" stroke-miterlimit="10" d="M 0.000175 0.0009875 C 1.457206 -1.190419 3.066581 -2.913075 3.781425 -4.061512 L 3.402519 -4.327137 C 2.7033 -3.151356 1.121269 -1.4287 -0.335763 -0.225575 Z M 2.074394 -9.916981 L -5.968575 -9.916981 L -5.968575 -9.495106 L 2.074394 -9.495106 Z M 2.281425 -5.112294 L 2.281425 -10.674794 L 1.863456 -10.674794 L 1.863456 -5.518544 L -5.784981 -5.518544 L -5.784981 -10.729481 L -6.206856 -10.729481 L -6.206856 -5.112294 Z M -7.242013 -3.346669 L -6.808419 -3.139637 L 2.492362 -2.592762 C 2.507987 -2.702137 2.519706 -2.870106 2.562675 -2.956044 C -6.245919 -3.502919 -6.878731 -3.541981 -7.242013 -3.682606 Z M -7.382638 -3.233387 C -7.128731 -3.194325 -6.738106 -2.858387 -6.261544 -2.381825 C -5.730294 -1.889637 -3.980294 -0.0419812 -2.745919 1.750988 L -2.339669 1.567394 C -3.7967 -0.362294 -5.335763 -2.127919 -6.851388 -3.405262 L -6.851388 -3.416981 C -6.851388 -3.416981 -7.242013 -3.557606 -7.242013 -3.682606 C -7.257638 -3.573231 -7.32795 -3.346669 -7.382638 -3.233387 Z M -7.382638 -3.233387 " transform="matrix(1, 0, 0, -1, 68.7967, 52.0713)"/>
<path fill-rule="nonzero" fill="rgb(13.699341%, 9.399414%, 8.198547%)" fill-opacity="1" d="M 87.375 54.730469 C 87.726562 55.335938 88.019531 56.105469 88.105469 56.582031 L 87.726562 56.75 C 87.628906 56.246094 87.335938 55.445312 87.027344 54.84375 Z M 87.25 53.050781 C 87.601562 53.5 87.949219 54.117188 88.089844 54.496094 L 87.726562 54.664062 C 87.570312 54.257812 87.222656 53.652344 86.898438 53.164062 Z M 86.382812 54.941406 C 86.621094 55.601562 86.789062 56.414062 86.804688 56.890625 L 86.410156 57.03125 C 86.398438 56.511719 86.242188 55.671875 86.019531 55.027344 Z M 84.925781 52.238281 L 85.21875 52.085938 L 86.871094 51.960938 C 86.859375 52.070312 86.859375 52.238281 86.871094 52.324219 C 85.347656 52.464844 85.066406 52.503906 84.925781 52.574219 Z M 84.898438 54.144531 L 85.191406 53.992188 L 87.515625 53.710938 C 87.515625 53.808594 87.542969 53.960938 87.570312 54.03125 C 85.371094 54.355469 85.066406 54.425781 84.898438 54.496094 Z M 84.773438 52.15625 C 84.925781 52.140625 85.023438 52.015625 85.148438 51.832031 C 85.304688 51.652344 85.820312 50.878906 86.058594 50.152344 L 86.480469 50.320312 C 86.144531 51.078125 85.710938 51.820312 85.304688 52.292969 L 85.304688 52.308594 C 85.304688 52.308594 84.925781 52.449219 84.925781 52.574219 C 84.898438 52.476562 84.828125 52.253906 84.773438 52.15625 M 84.742188 54.074219 C 84.9375 54.046875 85.148438 53.878906 85.386719 53.613281 C 85.667969 53.359375 86.550781 52.324219 87.109375 51.3125 L 87.542969 51.496094 C 86.84375 52.546875 86.058594 53.542969 85.273438 54.226562 L 85.273438 54.242188 C 85.273438 54.242188 84.898438 54.382812 84.898438 54.496094 C 84.867188 54.394531 84.796875 54.171875 84.742188 54.074219 M 85.582031 55.070312 C 85.429688 55.769531 85.191406 56.554688 84.925781 57.097656 C 84.855469 57.042969 84.660156 56.929688 84.546875 56.875 C 84.855469 56.355469 85.023438 55.65625 85.148438 55 Z M 87.417969 60.195312 C 87.417969 60.195312 87.402344 60.378906 87.375 60.460938 C 87.039062 61.738281 86.746094 62.351562 86.355469 62.632812 C 86.128906 62.773438 85.933594 62.800781 85.542969 62.800781 C 85.179688 62.800781 84.324219 62.785156 83.425781 62.730469 C 83.410156 62.605469 83.355469 62.4375 83.273438 62.308594 C 84.238281 62.410156 85.164062 62.421875 85.5 62.421875 C 85.820312 62.421875 85.960938 62.421875 86.101562 62.324219 C 86.421875 62.085938 86.691406 61.511719 86.996094 60.265625 L 86.996094 60.195312 Z M 82.726562 50.234375 C 82.992188 50.574219 83.285156 51.0625 83.410156 51.371094 L 83.019531 51.539062 C 82.90625 51.203125 82.613281 50.710938 82.347656 50.363281 Z M 82.179688 56.34375 L 83.957031 56.34375 L 83.957031 55.097656 L 82.179688 55.097656 Z M 84.351562 54.046875 L 81.816406 54.046875 L 81.816406 53.640625 L 84.351562 53.640625 Z M 84.351562 53.066406 L 81.816406 53.066406 L 81.816406 52.644531 L 84.351562 52.644531 Z M 84.363281 56.75 L 81.761719 56.75 L 81.761719 54.675781 L 84.363281 54.675781 Z M 84.785156 52.015625 L 81.378906 52.015625 L 81.378906 51.609375 L 84.785156 51.609375 Z M 80.960938 54.800781 C 81.242188 55.320312 81.507812 55.992188 81.5625 56.414062 L 81.199219 56.566406 C 81.113281 56.132812 80.863281 55.445312 80.597656 54.914062 Z M 80.847656 53.121094 C 81.144531 53.527344 81.464844 54.074219 81.578125 54.425781 L 81.199219 54.59375 C 81.074219 54.226562 80.777344 53.652344 80.472656 53.234375 Z M 79.96875 55.027344 C 80.175781 55.613281 80.332031 56.355469 80.34375 56.792969 L 79.953125 56.929688 C 79.9375 56.46875 79.796875 55.683594 79.585938 55.097656 Z M 87.082031 60.617188 L 79.53125 60.617188 L 79.53125 60.195312 L 87.082031 60.195312 Z M 80.203125 58.824219 C 80.023438 59.453125 79.796875 60.125 79.617188 60.617188 L 79.195312 60.617188 C 79.40625 60.097656 79.617188 59.410156 79.785156 58.824219 Z M 86.453125 58.824219 L 86.453125 57.800781 L 79.167969 57.800781 L 79.167969 57.378906 L 86.871094 57.378906 L 86.871094 59.242188 L 79.925781 59.242188 L 79.925781 58.824219 Z M 78.496094 52.308594 L 78.804688 52.15625 L 80.441406 52.027344 C 80.429688 52.15625 80.429688 52.308594 80.441406 52.394531 C 78.914062 52.535156 78.636719 52.589844 78.496094 52.644531 Z M 78.46875 54.226562 L 78.777344 54.058594 L 81.085938 53.792969 C 81.085938 53.878906 81.113281 54.03125 81.144531 54.117188 C 78.945312 54.425781 78.636719 54.496094 78.46875 54.5625 Z M 78.34375 52.238281 C 78.496094 52.210938 78.605469 52.097656 78.734375 51.902344 C 78.875 51.734375 79.40625 50.949219 79.628906 50.222656 L 80.066406 50.375 C 79.714844 51.160156 79.28125 51.902344 78.875 52.378906 L 78.875 52.394531 C 78.875 52.394531 78.496094 52.519531 78.496094 52.644531 C 78.46875 52.546875 78.398438 52.335938 78.34375 52.238281 M 78.3125 54.160156 C 78.511719 54.128906 78.71875 53.949219 78.957031 53.683594 C 79.238281 53.429688 80.136719 52.394531 80.695312 51.382812 L 81.113281 51.582031 C 80.414062 52.617188 79.628906 53.625 78.847656 54.296875 L 78.847656 54.3125 C 78.847656 54.3125 78.46875 54.453125 78.46875 54.5625 C 78.4375 54.480469 78.371094 54.257812 78.3125 54.160156 M 79.152344 55.152344 C 79 55.851562 78.777344 56.625 78.496094 57.171875 C 78.425781 57.113281 78.230469 57.003906 78.117188 56.960938 C 78.425781 56.425781 78.605469 55.742188 78.734375 55.070312 Z M 76.171875 50.363281 C 76.886719 50.796875 77.710938 51.453125 78.105469 51.929688 L 77.824219 52.238281 C 77.433594 51.75 76.617188 51.0625 75.902344 50.613281 Z M 77.558594 57.925781 L 77.894531 58.152344 C 77.433594 59.578125 76.730469 61.398438 76.171875 62.617188 L 75.792969 62.367188 C 76.3125 61.289062 77.054688 59.425781 77.558594 57.925781 M 75.832031 54.128906 C 76.589844 54.523438 77.445312 55.152344 77.863281 55.613281 L 77.601562 55.921875 C 77.179688 55.460938 76.3125 54.816406 75.566406 54.410156 Z M 75.832031 54.128906 "/>
<path fill="none" stroke-width="0.25" stroke-linecap="round" stroke-linejoin="round" stroke="rgb(13.699341%, 9.399414%, 8.198547%)" stroke-opacity="1" stroke-miterlimit="10" d="M -0.0018 0.00193125 C 0.349763 -0.603538 0.642731 -1.373069 0.728669 -1.849631 L 0.349763 -2.0176 C 0.252106 -1.513694 -0.0408625 -0.712913 -0.349456 -0.11135 Z M -0.1268 1.681619 C 0.224763 1.2324 0.572419 0.615212 0.713044 0.236306 L 0.349763 0.0683375 C 0.193513 0.474587 -0.154144 1.080056 -0.478362 1.568337 Z M -0.993987 -0.209006 C -0.755706 -0.869163 -0.587737 -1.681663 -0.572112 -2.158225 L -0.966644 -2.29885 C -0.978362 -1.779319 -1.134612 -0.939475 -1.357269 -0.294944 Z M -2.451019 2.494119 L -2.15805 2.646462 L -0.505706 2.771462 C -0.517425 2.662087 -0.517425 2.494119 -0.505706 2.408181 C -2.029144 2.267556 -2.310394 2.228494 -2.451019 2.158181 Z M -2.478362 0.587869 L -2.185394 0.740212 L 0.138825 1.021462 C 0.138825 0.923806 0.166169 0.771462 0.193513 0.70115 C -2.005706 0.376931 -2.310394 0.306619 -2.478362 0.236306 Z M -2.603362 2.57615 C -2.451019 2.591775 -2.353362 2.716775 -2.228362 2.900369 C -2.072112 3.080056 -1.556487 3.853494 -1.318206 4.580056 L -0.896331 4.412087 C -1.232269 3.654275 -1.665862 2.912087 -2.072112 2.439431 L -2.072112 2.423806 C -2.072112 2.423806 -2.451019 2.283181 -2.451019 2.158181 C -2.478362 2.255837 -2.548675 2.478494 -2.603362 2.57615 Z M -2.634612 0.658181 C -2.4393 0.685525 -2.228362 0.853494 -1.990081 1.119119 C -1.708831 1.373025 -0.826019 2.408181 -0.267425 3.4199 L 0.166169 3.236306 C -0.53305 2.185525 -1.318206 1.189431 -2.103362 0.505837 L -2.103362 0.490212 C -2.103362 0.490212 -2.478362 0.349587 -2.478362 0.236306 C -2.509612 0.337869 -2.579925 0.560525 -2.634612 0.658181 Z M -1.794769 -0.337913 C -1.947112 -1.037131 -2.185394 -1.822288 -2.451019 -2.365256 C -2.521331 -2.310569 -2.716644 -2.197288 -2.829925 -2.1426 C -2.521331 -1.623069 -2.353362 -0.92385 -2.228362 -0.2676 Z M 0.0411688 -5.462913 C 0.0411688 -5.462913 0.0255438 -5.646506 -0.0018 -5.728538 C -0.337737 -7.005881 -0.630706 -7.619163 -1.021331 -7.900413 C -1.247894 -8.041038 -1.443206 -8.068381 -1.833831 -8.068381 C -2.197112 -8.068381 -3.052581 -8.052756 -3.951019 -7.998069 C -3.966644 -7.873069 -4.021331 -7.7051 -4.103362 -7.576194 C -3.138519 -7.677756 -2.212737 -7.689475 -1.8768 -7.689475 C -1.556487 -7.689475 -1.415862 -7.689475 -1.275237 -7.591819 C -0.954925 -7.353538 -0.685394 -6.779319 -0.380706 -5.533225 L -0.380706 -5.462913 Z M -4.650237 4.498025 C -4.384612 4.158181 -4.091644 3.6699 -3.966644 3.361306 L -4.357269 3.193337 C -4.47055 3.529275 -4.763519 4.021462 -5.029144 4.369119 Z M -5.197112 -1.61135 L -3.419769 -1.61135 L -3.419769 -0.365256 L -5.197112 -0.365256 Z M -3.025237 0.685525 L -5.560394 0.685525 L -5.560394 1.091775 L -3.025237 1.091775 Z M -3.025237 1.665994 L -5.560394 1.665994 L -5.560394 2.087869 L -3.025237 2.087869 Z M -3.013519 -2.0176 L -5.615081 -2.0176 L -5.615081 0.0566187 L -3.013519 0.0566187 Z M -2.591644 2.716775 L -5.997894 2.716775 L -5.997894 3.123025 L -2.591644 3.123025 Z M -6.415862 -0.0683813 C -6.134612 -0.587913 -5.868987 -1.259788 -5.8143 -1.681663 L -6.177581 -1.834006 C -6.263519 -1.400413 -6.513519 -0.712913 -6.779144 -0.181663 Z M -6.529144 1.611306 C -6.232269 1.205056 -5.911956 0.658181 -5.798675 0.306619 L -6.177581 0.13865 C -6.302581 0.505837 -6.599456 1.080056 -6.904144 1.498025 Z M -7.40805 -0.294944 C -7.201019 -0.880881 -7.044769 -1.623069 -7.03305 -2.060569 L -7.423675 -2.197288 C -7.4393 -1.73635 -7.579925 -0.951194 -7.790862 -0.365256 Z M -0.294769 -5.884788 L -7.84555 -5.884788 L -7.84555 -5.462913 L -0.294769 -5.462913 Z M -7.173675 -4.091819 C -7.353362 -4.720725 -7.579925 -5.3926 -7.759612 -5.884788 L -8.181487 -5.884788 C -7.97055 -5.365256 -7.759612 -4.677756 -7.591644 -4.091819 Z M -0.923675 -4.091819 L -0.923675 -3.068381 L -8.208831 -3.068381 L -8.208831 -2.646506 L -0.505706 -2.646506 L -0.505706 -4.509788 L -7.451019 -4.509788 L -7.451019 -4.091819 Z M -8.880706 2.423806 L -8.572112 2.57615 L -6.935394 2.705056 C -6.947112 2.57615 -6.947112 2.423806 -6.935394 2.337869 C -8.462737 2.197244 -8.740081 2.142556 -8.880706 2.087869 Z M -8.90805 0.505837 L -8.599456 0.673806 L -6.290862 0.939431 C -6.290862 0.853494 -6.263519 0.70115 -6.232269 0.615212 C -8.431487 0.306619 -8.740081 0.236306 -8.90805 0.1699 Z M -9.03305 2.494119 C -8.880706 2.521462 -8.771331 2.634744 -8.642425 2.830056 C -8.5018 2.998025 -7.97055 3.783181 -7.747894 4.509744 L -7.310394 4.3574 C -7.661956 3.572244 -8.09555 2.830056 -8.5018 2.353494 L -8.5018 2.337869 C -8.5018 2.337869 -8.880706 2.212869 -8.880706 2.087869 C -8.90805 2.185525 -8.978362 2.396462 -9.03305 2.494119 Z M -9.0643 0.572244 C -8.865081 0.603494 -8.65805 0.783181 -8.419769 1.048806 C -8.138519 1.302712 -7.240081 2.337869 -6.681487 3.349587 L -6.263519 3.150369 C -6.962737 2.115212 -7.747894 1.1074 -8.529144 0.435525 L -8.529144 0.4199 C -8.529144 0.4199 -8.90805 0.279275 -8.90805 0.1699 C -8.9393 0.251931 -9.005706 0.474587 -9.0643 0.572244 Z M -8.224456 -0.419944 C -8.3768 -1.119163 -8.599456 -1.8926 -8.880706 -2.439475 C -8.951019 -2.380881 -9.146331 -2.271506 -9.259612 -2.228538 C -8.951019 -1.693381 -8.771331 -1.009788 -8.642425 -0.337913 Z M -11.204925 4.369119 C -10.490081 3.935525 -9.665862 3.279275 -9.271331 2.802712 L -9.552581 2.494119 C -9.943206 2.9824 -10.759612 3.6699 -11.474456 4.119119 Z M -9.818206 -3.193381 L -9.482269 -3.419944 C -9.943206 -4.845725 -10.646331 -6.666038 -11.204925 -7.884788 L -11.583831 -7.634788 C -11.0643 -6.556663 -10.322112 -4.693381 -9.818206 -3.193381 Z M -11.544769 0.603494 C -10.786956 0.208962 -9.931487 -0.419944 -9.513519 -0.880881 L -9.775237 -1.189475 C -10.197112 -0.728538 -11.0643 -0.0840063 -11.810394 0.322244 Z M -11.544769 0.603494 " transform="matrix(1, 0, 0, -1, 87.3768, 54.7324)"/>
<path fill-rule="nonzero" fill="rgb(13.699341%, 9.399414%, 8.198547%)" fill-opacity="1" d="M 103.222656 55.726562 C 103.113281 55.8125 102.972656 55.949219 102.886719 56.0625 C 101.445312 54.984375 99.722656 52.714844 98.785156 50.699219 L 99.148438 50.542969 C 100.03125 52.53125 101.765625 54.730469 103.222656 55.726562 M 101.164062 55.644531 C 101.164062 55.644531 101.164062 55.851562 101.152344 55.921875 C 100.898438 60.320312 100.6875 61.875 100.183594 62.382812 C 99.960938 62.617188 99.722656 62.6875 99.289062 62.6875 C 98.839844 62.703125 97.914062 62.675781 96.976562 62.605469 C 96.964844 62.476562 96.921875 62.308594 96.835938 62.183594 C 97.886719 62.28125 98.882812 62.296875 99.203125 62.296875 C 99.527344 62.296875 99.695312 62.269531 99.835938 62.144531 C 100.253906 61.722656 100.519531 60.140625 100.746094 55.742188 L 100.746094 55.644531 Z M 100.914062 56.050781 L 92.453125 56.050781 L 92.453125 55.644531 L 100.914062 55.644531 Z M 96.066406 55.742188 C 95.703125 58.726562 94.832031 61.582031 91.191406 62.84375 C 91.136719 62.757812 91.023438 62.632812 90.941406 62.550781 C 94.527344 61.359375 95.308594 58.542969 95.632812 55.742188 Z M 95.128906 50.683594 C 94.203125 52.96875 92.734375 54.898438 91.078125 56.1875 C 91.007812 56.117188 90.828125 55.980469 90.714844 55.910156 C 92.425781 54.675781 93.851562 52.742188 94.707031 50.570312 Z M 95.128906 50.683594 "/>
<path fill="none" stroke-width="0.25" stroke-linecap="round" stroke-linejoin="round" stroke="rgb(13.699341%, 9.399414%, 8.198547%)" stroke-opacity="1" stroke-miterlimit="10" d="M -0.00174375 0.0004375 C -0.111119 -0.0855 -0.251744 -0.222219 -0.337681 -0.3355 C -1.779088 0.742625 -3.501744 3.012156 -4.439244 5.027781 L -4.075963 5.184031 C -3.19315 3.19575 -1.458775 0.996531 -0.00174375 0.0004375 Z M -2.060338 0.0824688 C -2.060338 0.0824688 -2.060338 -0.124562 -2.072056 -0.194875 C -2.325963 -4.593312 -2.5369 -6.148 -3.040806 -6.655812 C -3.263463 -6.890187 -3.501744 -6.9605 -3.935338 -6.9605 C -4.384556 -6.976125 -5.310338 -6.948781 -6.247838 -6.878469 C -6.259556 -6.749562 -6.302525 -6.581594 -6.388463 -6.456594 C -5.337681 -6.55425 -4.341588 -6.569875 -4.021275 -6.569875 C -3.697056 -6.569875 -3.529088 -6.542531 -3.388463 -6.417531 C -2.970494 -5.995656 -2.704869 -4.413625 -2.478306 -0.0151875 L -2.478306 0.0824688 Z M -2.310338 -0.323781 L -10.771275 -0.323781 L -10.771275 0.0824688 L -2.310338 0.0824688 Z M -7.157994 -0.0151875 C -7.521275 -2.999562 -8.392369 -5.855031 -12.032994 -7.11675 C -12.087681 -7.030812 -12.200963 -6.905812 -12.282994 -6.823781 C -8.697056 -5.632375 -7.915806 -2.815969 -7.591588 -0.0151875 Z M -8.095494 5.043406 C -9.021275 2.75825 -10.490025 0.828563 -12.146275 -0.4605 C -12.216588 -0.390187 -12.396275 -0.253469 -12.509556 -0.183156 C -10.798619 1.051219 -9.372838 2.984813 -8.517369 5.156688 Z M -8.095494 5.043406 " transform="matrix(1, 0, 0, -1, 103.2244, 55.727)"/>
<path fill-rule="nonzero" fill="rgb(13.699341%, 9.399414%, 8.198547%)" fill-opacity="1" d="M 114.128906 57.742188 C 115.433594 59.199219 116.972656 61.160156 117.671875 62.382812 L 117.292969 62.605469 C 116.566406 61.359375 115.066406 59.355469 113.765625 57.925781 Z M 118.375 56.203125 C 118.261719 56.300781 118.109375 56.457031 118.007812 56.554688 C 116.511719 55.335938 114.605469 52.882812 113.539062 50.738281 L 113.933594 50.570312 C 114.957031 52.6875 116.859375 55.097656 118.375 56.203125 M 107.390625 61.332031 L 107.824219 61.105469 L 116.34375 60.671875 C 116.355469 60.785156 116.398438 60.964844 116.425781 61.0625 C 108.34375 61.5 107.742188 61.539062 107.390625 61.667969 Z M 107.222656 61.21875 C 107.503906 61.160156 107.9375 60.65625 108.429688 59.984375 C 108.960938 59.339844 110.695312 56.863281 111.886719 54.550781 L 112.292969 54.746094 C 110.949219 57.171875 109.4375 59.664062 107.855469 61.371094 L 107.855469 61.386719 C 107.855469 61.386719 107.390625 61.5 107.390625 61.667969 C 107.363281 61.554688 107.292969 61.34375 107.222656 61.21875 M 110.289062 50.796875 C 109.339844 53.09375 107.855469 55.152344 106.242188 56.539062 C 106.160156 56.46875 105.992188 56.316406 105.878906 56.246094 C 107.53125 54.929688 108.988281 52.867188 109.898438 50.683594 Z M 110.289062 50.796875 "/>
<path fill="none" stroke-width="0.25" stroke-linecap="round" stroke-linejoin="round" stroke="rgb(13.699341%, 9.399414%, 8.198547%)" stroke-opacity="1" stroke-miterlimit="10" d="M 0.00020625 0.0019125 C 1.304894 -1.455119 2.843956 -3.416056 3.543175 -4.638712 L 3.164269 -4.861369 C 2.437706 -3.615275 0.937706 -1.611369 -0.363075 -0.181681 Z M 4.2463 1.540975 C 4.133019 1.443319 3.980675 1.287069 3.879113 1.189413 C 2.383019 2.408163 0.476769 4.861288 -0.589637 7.005819 L -0.195106 7.173788 C 0.828331 5.0566 2.730675 2.646444 4.2463 1.540975 Z M -6.738075 -3.587931 L -6.304481 -3.361369 L 2.21505 -2.927775 C 2.226769 -3.041056 2.269738 -3.220744 2.297081 -3.3184 C -5.78495 -3.7559 -6.386512 -3.794962 -6.738075 -3.923869 Z M -6.906044 -3.47465 C -6.624794 -3.416056 -6.1912 -2.91215 -5.699012 -2.240275 C -5.167762 -1.595744 -3.433387 0.880819 -2.241981 3.193319 L -1.835731 2.998006 C -3.179481 0.572225 -4.6912 -1.919962 -6.273231 -3.626994 L -6.273231 -3.642619 C -6.273231 -3.642619 -6.738075 -3.7559 -6.738075 -3.923869 C -6.765419 -3.810587 -6.835731 -3.59965 -6.906044 -3.47465 Z M -3.839637 6.947225 C -4.788856 4.65035 -6.273231 2.591756 -7.886512 1.205038 C -7.968544 1.27535 -8.136512 1.427694 -8.249794 1.498006 C -6.59745 2.814413 -5.140419 4.876913 -4.230262 7.060506 Z M -3.839637 6.947225 " transform="matrix(1, 0, 0, -1, 114.1287, 57.7441)"/>
<path fill-rule="nonzero" fill="rgb(13.699341%, 9.399414%, 8.198547%)" fill-opacity="1" stroke-width="0.25" stroke-linecap="round" stroke-linejoin="round" stroke="rgb(13.699341%, 9.399414%, 8.198547%)" stroke-opacity="1" stroke-miterlimit="10" d="M -0.00173125 -0.0019375 L -0.00173125 -10.646469 C -0.00173125 -11.13475 -0.111106 -11.345687 -0.505638 -11.431625 C -0.896263 -11.513656 -1.76345 -11.501937 -2.997825 -11.501937 C -3.040794 -11.373031 -3.1072 -11.177719 -3.193138 -11.025375 C -2.0447 -11.052719 -1.036888 -11.037094 -0.728294 -11.025375 C -0.462669 -11.00975 -0.392356 -10.927719 -0.392356 -10.658187 L -0.392356 -0.0019375 Z M -3.404075 -4.763656 L -3.404075 -8.966781 L -9.509544 -8.966781 L -9.509544 -8.560531 L -3.810325 -8.560531 L -3.810325 -5.181625 L -9.509544 -5.181625 L -9.509544 -4.763656 Z M -9.314231 -10.029281 L -9.720481 -10.029281 L -9.720481 -4.763656 L -9.314231 -4.763656 Z M -2.185325 -2.771469 L -10.786888 -2.771469 L -10.786888 -2.365219 L -2.185325 -2.365219 Z M -0.13845 -0.419906 L -10.841575 -0.419906 L -10.841575 -0.0019375 L -0.13845 -0.0019375 Z M -0.13845 -0.419906 " transform="matrix(1, 0, 0, -1, 132.2322, 51.1465)"/>
<path fill-rule="nonzero" fill="rgb(67.498779%, 7.499695%, 20.399475%)" fill-opacity="1" d="M 17.925781 16.15625 L 17.925781 50.726562 L 24.433594 50.726562 L 24.433594 22.664062 Z M 17.925781 16.15625 "/>
<path fill-rule="nonzero" fill="rgb(0%, 29.399109%, 25.898743%)" fill-opacity="1" d="M 50.027344 51.957031 L 50.027344 17.382812 L 43.519531 17.382812 L 43.519531 45.449219 Z M 50.027344 51.957031 "/>
<path fill-rule="nonzero" fill="rgb(13.699341%, 9.399414%, 8.198547%)" fill-opacity="1" d="M 37.550781 60.292969 C 37.550781 60.398438 37.542969 60.507812 37.53125 60.617188 C 37.519531 60.722656 37.5 60.820312 37.46875 60.90625 C 37.425781 61.046875 37.367188 61.175781 37.285156 61.292969 C 37.207031 61.402344 37.105469 61.503906 36.988281 61.582031 C 36.867188 61.664062 36.726562 61.730469 36.5625 61.773438 C 36.398438 61.820312 36.207031 61.84375 35.992188 61.84375 C 35.601562 61.84375 35.285156 61.765625 35.050781 61.621094 C 34.820312 61.472656 34.652344 61.269531 34.554688 61.015625 C 34.515625 60.914062 34.484375 60.800781 34.464844 60.671875 C 34.445312 60.542969 34.4375 60.414062 34.4375 60.292969 L 34.4375 56.679688 L 33.5 56.679688 L 33.5 60.277344 C 33.5 60.433594 33.507812 60.59375 33.527344 60.757812 C 33.550781 60.925781 33.582031 61.082031 33.632812 61.230469 C 33.699219 61.433594 33.792969 61.621094 33.914062 61.792969 C 34.039062 61.96875 34.199219 62.121094 34.390625 62.246094 C 34.582031 62.371094 34.808594 62.472656 35.070312 62.539062 C 35.332031 62.609375 35.640625 62.644531 35.984375 62.644531 C 36.34375 62.644531 36.664062 62.605469 36.929688 62.53125 C 37.203125 62.457031 37.4375 62.351562 37.632812 62.214844 C 37.828125 62.078125 37.992188 61.910156 38.113281 61.726562 C 38.234375 61.539062 38.328125 61.335938 38.386719 61.117188 C 38.421875 60.988281 38.449219 60.851562 38.464844 60.699219 C 38.480469 60.550781 38.488281 60.410156 38.488281 60.277344 L 38.488281 56.679688 L 37.550781 56.679688 Z M 37.550781 60.292969 "/>
<path fill-rule="nonzero" fill="rgb(13.699341%, 9.399414%, 8.198547%)" fill-opacity="1" d="M 40.230469 57.507812 L 40.671875 57.507812 C 40.941406 57.507812 41.179688 57.519531 41.394531 57.539062 C 41.601562 57.558594 41.789062 57.59375 41.960938 57.648438 C 42.394531 57.785156 42.730469 58.019531 42.960938 58.34375 C 43.195312 58.667969 43.3125 59.105469 43.3125 59.636719 C 43.3125 60.175781 43.195312 60.621094 42.960938 60.964844 C 42.730469 61.300781 42.394531 61.542969 41.960938 61.679688 C 41.789062 61.734375 41.601562 61.769531 41.394531 61.789062 C 41.179688 61.808594 40.941406 61.816406 40.671875 61.816406 L 40.230469 61.816406 Z M 43.6875 57.871094 C 43.515625 57.632812 43.296875 57.421875 43.039062 57.246094 C 42.78125 57.070312 42.472656 56.933594 42.128906 56.835938 C 41.933594 56.78125 41.71875 56.742188 41.488281 56.71875 C 41.261719 56.699219 41.015625 56.6875 40.75 56.6875 L 39.339844 56.6875 L 39.339844 62.640625 L 40.738281 62.640625 C 41.003906 62.640625 41.25 62.628906 41.476562 62.609375 C 41.707031 62.585938 41.921875 62.542969 42.117188 62.488281 C 42.460938 62.390625 42.769531 62.253906 43.027344 62.078125 C 43.285156 61.898438 43.503906 61.683594 43.679688 61.4375 C 43.851562 61.195312 43.984375 60.914062 44.070312 60.609375 C 44.15625 60.304688 44.199219 59.980469 44.199219 59.636719 C 44.199219 59.296875 44.15625 58.976562 44.070312 58.679688 C 43.988281 58.382812 43.859375 58.109375 43.6875 57.871094 "/>
<path fill-rule="nonzero" fill="rgb(13.699341%, 9.399414%, 8.198547%)" fill-opacity="1" d="M 49.535156 59.667969 C 49.535156 60.039062 49.484375 60.375 49.386719 60.65625 C 49.292969 60.9375 49.15625 61.171875 48.988281 61.355469 C 48.820312 61.542969 48.621094 61.6875 48.398438 61.78125 C 47.945312 61.972656 47.371094 61.96875 46.914062 61.777344 C 46.6875 61.6875 46.488281 61.542969 46.320312 61.355469 C 46.152344 61.171875 46.019531 60.9375 45.917969 60.652344 C 45.820312 60.371094 45.769531 60.039062 45.769531 59.667969 C 45.769531 59.292969 45.820312 58.960938 45.917969 58.675781 C 46.011719 58.398438 46.148438 58.160156 46.316406 57.972656 C 46.484375 57.785156 46.683594 57.644531 46.910156 57.546875 C 47.140625 57.449219 47.390625 57.402344 47.652344 57.402344 C 47.914062 57.402344 48.164062 57.449219 48.394531 57.546875 C 48.621094 57.644531 48.820312 57.785156 48.988281 57.972656 C 49.15625 58.160156 49.292969 58.398438 49.386719 58.675781 C 49.484375 58.960938 49.535156 59.292969 49.535156 59.667969 M 50.230469 58.433594 C 50.105469 58.058594 49.921875 57.734375 49.683594 57.460938 C 49.445312 57.191406 49.152344 56.972656 48.8125 56.820312 C 48.46875 56.671875 48.078125 56.59375 47.652344 56.59375 C 47.234375 56.59375 46.847656 56.671875 46.507812 56.820312 C 46.167969 56.972656 45.875 57.1875 45.636719 57.460938 C 45.398438 57.734375 45.210938 58.058594 45.082031 58.433594 C 44.953125 58.804688 44.886719 59.222656 44.886719 59.667969 C 44.886719 60.109375 44.949219 60.523438 45.074219 60.894531 C 45.199219 61.265625 45.382812 61.59375 45.621094 61.867188 C 45.859375 62.136719 46.152344 62.351562 46.496094 62.503906 C 46.835938 62.65625 47.230469 62.734375 47.660156 62.734375 C 48.078125 62.734375 48.460938 62.65625 48.796875 62.503906 C 49.136719 62.351562 49.429688 62.136719 49.671875 61.867188 C 49.910156 61.59375 50.097656 61.265625 50.226562 60.894531 C 50.351562 60.523438 50.417969 60.109375 50.417969 59.667969 C 50.417969 59.222656 50.355469 58.808594 50.230469 58.433594 "/>
<path fill-rule="nonzero" fill="rgb(13.699341%, 9.399414%, 8.198547%)" fill-opacity="1" d="M 26.910156 59.667969 C 26.910156 60.039062 26.863281 60.375 26.765625 60.65625 C 26.667969 60.9375 26.53125 61.171875 26.363281 61.355469 C 26.199219 61.542969 26 61.6875 25.773438 61.78125 C 25.320312 61.972656 24.746094 61.96875 24.292969 61.777344 C 24.0625 61.6875 23.863281 61.542969 23.695312 61.355469 C 23.527344 61.171875 23.394531 60.9375 23.296875 60.652344 C 23.195312 60.371094 23.148438 60.039062 23.148438 59.667969 C 23.148438 59.292969 23.195312 58.960938 23.292969 58.675781 C 23.390625 58.398438 23.523438 58.160156 23.691406 57.972656 C 23.859375 57.785156 24.058594 57.644531 24.285156 57.546875 C 24.515625 57.449219 24.765625 57.402344 25.027344 57.402344 C 25.292969 57.402344 25.542969 57.449219 25.769531 57.546875 C 26 57.644531 26.199219 57.785156 26.363281 57.972656 C 26.535156 58.160156 26.667969 58.398438 26.765625 58.675781 C 26.863281 58.960938 26.910156 59.292969 26.910156 59.667969 M 27.0625 57.460938 C 26.824219 57.191406 26.527344 56.972656 26.1875 56.820312 C 25.847656 56.671875 25.457031 56.59375 25.027344 56.59375 C 24.609375 56.59375 24.222656 56.671875 23.886719 56.820312 C 23.542969 56.972656 23.25 57.1875 23.011719 57.460938 C 22.773438 57.734375 22.589844 58.058594 22.457031 58.433594 C 22.328125 58.804688 22.261719 59.222656 22.261719 59.667969 C 22.261719 60.109375 22.328125 60.523438 22.453125 60.894531 C 22.574219 61.265625 22.761719 61.59375 22.996094 61.867188 C 23.234375 62.136719 23.527344 62.351562 23.875 62.503906 C 24.214844 62.65625 24.605469 62.734375 25.035156 62.734375 C 25.453125 62.734375 25.839844 62.65625 26.175781 62.503906 C 26.511719 62.351562 26.808594 62.136719 27.046875 61.867188 C 27.285156 61.59375 27.472656 61.265625 27.601562 60.894531 C 27.730469 60.523438 27.792969 60.109375 27.792969 59.667969 C 27.792969 59.222656 27.730469 58.808594 27.605469 58.433594 C 27.480469 58.058594 27.296875 57.734375 27.0625 57.460938 "/>
<path fill-rule="nonzero" fill="rgb(13.699341%, 9.399414%, 8.198547%)" fill-opacity="1" d="M 33.160156 56.761719 L 31.988281 56.773438 L 29.355469 59.269531 L 29.355469 56.8125 L 28.558594 56.8125 L 28.558594 62.5625 L 29.355469 62.5625 L 29.359375 59.46875 L 32.335938 62.5625 L 33.414062 62.5625 L 30.351562 59.40625 Z M 33.160156 56.761719 "/>
<path fill-rule="nonzero" fill="rgb(13.699341%, 9.399414%, 8.198547%)" fill-opacity="1" d="M 22.453125 56.761719 L 21.28125 56.773438 L 18.652344 59.269531 L 18.652344 56.8125 L 17.851562 56.8125 L 17.851562 62.5625 L 18.652344 62.5625 L 18.652344 59.46875 L 21.628906 62.5625 L 22.707031 62.5625 L 19.644531 59.40625 Z M 22.453125 56.761719 "/>
</svg>
