<?xml version="1.0" encoding="UTF-8"?>
<svg xmlns="http://www.w3.org/2000/svg" xmlns:xlink="http://www.w3.org/1999/xlink" width="406.182pt" height="148.729pt" viewBox="0 0 406.182 148.729">
<path fill-rule="nonzero" fill="rgb(67.451477%, 8.235168%, 20.783997%)" fill-opacity="1" d="M 81.484375 54.042969 L 81.484375 93.03125 L 88.820312 93.03125 L 88.820312 61.382812 Z M 81.484375 54.042969 "/>
<path fill-rule="nonzero" fill="rgb(0%, 29.411316%, 25.881958%)" fill-opacity="1" d="M 117.6875 94.414062 L 117.6875 55.425781 L 110.347656 55.425781 L 110.347656 87.078125 Z M 117.6875 94.414062 "/>
<path fill-rule="nonzero" fill="rgb(13.725281%, 9.803772%, 8.627319%)" fill-opacity="1" d="M 103.613281 103.820312 C 103.613281 103.9375 103.605469 104.058594 103.589844 104.183594 C 103.578125 104.304688 103.554688 104.414062 103.523438 104.511719 C 103.472656 104.671875 103.40625 104.816406 103.316406 104.945312 C 103.226562 105.070312 103.113281 105.183594 102.980469 105.273438 C 102.84375 105.367188 102.683594 105.4375 102.5 105.488281 C 102.3125 105.539062 102.097656 105.566406 101.855469 105.566406 C 101.414062 105.566406 101.058594 105.480469 100.796875 105.316406 C 100.535156 105.148438 100.347656 104.921875 100.234375 104.636719 C 100.1875 104.519531 100.15625 104.390625 100.132812 104.246094 C 100.113281 104.101562 100.101562 103.957031 100.101562 103.820312 L 100.101562 99.746094 L 99.042969 99.746094 L 99.042969 103.796875 C 99.042969 103.976562 99.054688 104.160156 99.078125 104.34375 C 99.101562 104.53125 99.140625 104.710938 99.191406 104.875 C 99.269531 105.101562 99.375 105.316406 99.515625 105.511719 C 99.652344 105.707031 99.832031 105.878906 100.046875 106.019531 C 100.265625 106.164062 100.523438 106.273438 100.816406 106.351562 C 101.113281 106.433594 101.457031 106.472656 101.84375 106.472656 C 102.25 106.472656 102.613281 106.429688 102.914062 106.34375 C 103.21875 106.257812 103.488281 106.136719 103.707031 105.984375 C 103.925781 105.832031 104.109375 105.644531 104.246094 105.433594 C 104.386719 105.226562 104.488281 104.996094 104.558594 104.75 C 104.597656 104.605469 104.625 104.445312 104.644531 104.277344 C 104.660156 104.109375 104.671875 103.949219 104.671875 103.796875 L 104.671875 99.746094 L 103.613281 99.746094 Z M 103.613281 103.820312 "/>
<path fill-rule="nonzero" fill="rgb(13.725281%, 9.803772%, 8.627319%)" fill-opacity="1" d="M 106.636719 100.679688 L 107.136719 100.679688 C 107.4375 100.679688 107.707031 100.691406 107.945312 100.714844 C 108.179688 100.734375 108.394531 100.777344 108.585938 100.835938 C 109.074219 100.988281 109.457031 101.253906 109.71875 101.621094 C 109.980469 101.988281 110.109375 102.480469 110.109375 103.078125 C 110.109375 103.6875 109.980469 104.191406 109.714844 104.574219 C 109.457031 104.957031 109.074219 105.230469 108.585938 105.382812 C 108.394531 105.441406 108.179688 105.484375 107.945312 105.503906 C 107.707031 105.527344 107.4375 105.539062 107.136719 105.539062 L 106.636719 105.539062 Z M 110.535156 101.085938 C 110.339844 100.816406 110.09375 100.578125 109.804688 100.382812 C 109.511719 100.1875 109.167969 100.03125 108.777344 99.921875 C 108.558594 99.859375 108.3125 99.816406 108.054688 99.789062 C 107.800781 99.765625 107.519531 99.753906 107.222656 99.753906 L 105.632812 99.753906 L 105.632812 106.464844 L 107.210938 106.464844 C 107.507812 106.464844 107.785156 106.453125 108.042969 106.429688 C 108.300781 106.402344 108.542969 106.359375 108.765625 106.296875 C 109.152344 106.1875 109.496094 106.027344 109.789062 105.832031 C 110.082031 105.628906 110.328125 105.386719 110.527344 105.109375 C 110.722656 104.835938 110.867188 104.519531 110.964844 104.175781 C 111.0625 103.835938 111.109375 103.464844 111.109375 103.078125 C 111.109375 102.695312 111.0625 102.332031 110.96875 102 C 110.871094 101.664062 110.726562 101.355469 110.535156 101.085938 "/>
<path fill-rule="nonzero" fill="rgb(13.725281%, 9.803772%, 8.627319%)" fill-opacity="1" d="M 117.128906 103.113281 C 117.128906 103.535156 117.074219 103.910156 116.964844 104.226562 C 116.855469 104.542969 116.703125 104.8125 116.511719 105.019531 C 116.324219 105.230469 116.101562 105.390625 115.847656 105.496094 C 115.335938 105.710938 114.6875 105.710938 114.175781 105.496094 C 113.917969 105.390625 113.691406 105.230469 113.503906 105.019531 C 113.316406 104.8125 113.160156 104.542969 113.050781 104.226562 C 112.941406 103.910156 112.882812 103.535156 112.882812 103.113281 C 112.882812 102.691406 112.9375 102.316406 113.050781 101.996094 C 113.15625 101.679688 113.308594 101.414062 113.5 101.203125 C 113.6875 100.992188 113.914062 100.832031 114.167969 100.722656 C 114.429688 100.613281 114.707031 100.558594 115.003906 100.558594 C 115.304688 100.558594 115.585938 100.613281 115.839844 100.722656 C 116.097656 100.832031 116.324219 100.992188 116.511719 101.203125 C 116.703125 101.414062 116.855469 101.679688 116.964844 101.996094 C 117.074219 102.316406 117.128906 102.691406 117.128906 103.113281 M 117.914062 101.722656 C 117.773438 101.300781 117.5625 100.929688 117.296875 100.625 C 117.027344 100.320312 116.699219 100.078125 116.3125 99.90625 C 115.929688 99.734375 115.488281 99.648438 115.003906 99.648438 C 114.53125 99.648438 114.097656 99.734375 113.714844 99.90625 C 113.332031 100.078125 113 100.316406 112.734375 100.625 C 112.464844 100.929688 112.253906 101.300781 112.105469 101.722656 C 111.960938 102.140625 111.886719 102.609375 111.886719 103.113281 C 111.886719 103.613281 111.957031 104.078125 112.097656 104.496094 C 112.242188 104.917969 112.449219 105.285156 112.714844 105.59375 C 112.980469 105.898438 113.316406 106.140625 113.699219 106.3125 C 114.085938 106.484375 114.527344 106.570312 115.015625 106.570312 C 115.484375 106.570312 115.917969 106.484375 116.300781 106.3125 C 116.679688 106.140625 117.011719 105.898438 117.285156 105.59375 C 117.554688 105.285156 117.761719 104.917969 117.90625 104.496094 C 118.050781 104.078125 118.125 103.613281 118.125 103.113281 C 118.125 102.609375 118.054688 102.144531 117.914062 101.722656 "/>
<path fill-rule="nonzero" fill="rgb(13.725281%, 9.803772%, 8.627319%)" fill-opacity="1" d="M 91.613281 103.113281 C 91.613281 103.535156 91.558594 103.910156 91.449219 104.226562 C 91.339844 104.542969 91.1875 104.8125 91 105.019531 C 90.808594 105.230469 90.585938 105.390625 90.332031 105.496094 C 89.820312 105.710938 89.171875 105.710938 88.660156 105.496094 C 88.402344 105.390625 88.179688 105.230469 87.988281 105.019531 C 87.800781 104.8125 87.648438 104.542969 87.535156 104.226562 C 87.425781 103.910156 87.371094 103.535156 87.371094 103.113281 C 87.371094 102.691406 87.425781 102.316406 87.535156 101.996094 C 87.644531 101.679688 87.792969 101.414062 87.984375 101.203125 C 88.171875 100.992188 88.398438 100.832031 88.65625 100.722656 C 88.914062 100.613281 89.195312 100.558594 89.492188 100.558594 C 89.789062 100.558594 90.070312 100.613281 90.328125 100.722656 C 90.585938 100.832031 90.808594 100.992188 91 101.203125 C 91.191406 101.414062 91.339844 101.679688 91.449219 101.996094 C 91.558594 102.316406 91.613281 102.691406 91.613281 103.113281 M 91.785156 100.625 C 91.515625 100.320312 91.183594 100.078125 90.800781 99.90625 C 90.414062 99.734375 89.972656 99.648438 89.492188 99.648438 C 89.019531 99.648438 88.585938 99.734375 88.203125 99.90625 C 87.816406 100.078125 87.488281 100.316406 87.21875 100.625 C 86.949219 100.929688 86.738281 101.300781 86.59375 101.722656 C 86.445312 102.140625 86.375 102.609375 86.375 103.113281 C 86.375 103.613281 86.445312 104.078125 86.585938 104.496094 C 86.726562 104.917969 86.933594 105.285156 87.199219 105.59375 C 87.46875 105.898438 87.800781 106.140625 88.1875 106.3125 C 88.574219 106.484375 89.015625 106.570312 89.503906 106.570312 C 89.972656 106.570312 90.402344 106.484375 90.785156 106.3125 C 91.167969 106.140625 91.496094 105.898438 91.769531 105.59375 C 92.039062 105.285156 92.25 104.917969 92.394531 104.496094 C 92.539062 104.078125 92.609375 103.613281 92.609375 103.113281 C 92.609375 102.609375 92.539062 102.144531 92.398438 101.722656 C 92.257812 101.300781 92.050781 100.929688 91.785156 100.625 "/>
<path fill-rule="nonzero" fill="rgb(13.725281%, 9.803772%, 8.627319%)" fill-opacity="1" d="M 98.660156 99.839844 L 97.339844 99.851562 L 94.371094 102.664062 L 94.371094 99.894531 L 93.472656 99.894531 L 93.472656 106.378906 L 94.371094 106.378906 L 94.375 102.890625 L 97.730469 106.378906 L 98.949219 106.378906 L 95.496094 102.820312 Z M 98.660156 99.839844 "/>
<path fill-rule="nonzero" fill="rgb(13.725281%, 9.803772%, 8.627319%)" fill-opacity="1" d="M 86.585938 99.839844 L 85.265625 99.851562 L 82.300781 102.664062 L 82.300781 99.894531 L 81.398438 99.894531 L 81.398438 106.378906 L 82.300781 106.378906 L 82.300781 102.890625 L 85.65625 106.378906 L 86.871094 106.378906 L 83.421875 102.820312 Z M 86.585938 99.839844 "/>
<path fill-rule="nonzero" fill="rgb(13.725281%, 9.803772%, 8.627319%)" fill-opacity="1" d="M 133.28125 78.96875 L 142.558594 78.96875 L 142.558594 73.875 L 133.28125 73.875 Z M 142.558594 67.035156 L 133.28125 67.035156 L 133.28125 72.011719 L 142.558594 72.011719 Z M 131.359375 65.132812 L 144.5625 65.132812 L 144.5625 82.101562 L 142.558594 82.101562 L 142.558594 80.875 L 133.28125 80.875 L 133.28125 82.183594 L 131.359375 82.183594 Z M 131.359375 65.132812 "/>
<path fill-rule="nonzero" fill="rgb(13.725281%, 9.803772%, 8.627319%)" fill-opacity="1" d="M 163.199219 73.261719 C 163.574219 73.261719 163.65625 73.179688 163.714844 72.566406 C 163.914062 72.726562 164.308594 72.863281 164.667969 72.984375 L 164.667969 71.554688 L 161.117188 71.554688 L 161.117188 72.824219 C 161.117188 73.199219 161.195312 73.261719 161.671875 73.261719 Z M 160.761719 76.949219 L 156.378906 76.949219 L 156.378906 79.089844 L 160.761719 79.089844 Z M 156.160156 69.929688 L 160.460938 69.929688 C 160.78125 69.273438 161.136719 68.421875 161.375 67.710938 L 155.484375 67.710938 C 155.863281 68.402344 156.257812 69.253906 156.417969 69.871094 Z M 162.464844 80.539062 L 156.378906 80.539062 L 156.378906 81.707031 L 154.691406 81.707031 L 154.691406 75.519531 L 162.464844 75.519531 Z M 152.433594 71.554688 L 152.433594 74.3125 C 154.734375 73.855469 155.40625 73.082031 155.625 71.554688 Z M 167.441406 65.984375 L 167.441406 67.710938 L 163.238281 67.710938 L 163.933594 67.867188 C 163.851562 68.003906 163.714844 68.085938 163.4375 68.105469 C 163.199219 68.640625 162.84375 69.335938 162.484375 69.929688 L 166.46875 69.929688 L 166.46875 80.339844 C 166.46875 82.261719 165.695312 82.5 162.109375 82.5 C 162.027344 81.964844 161.730469 81.171875 161.472656 80.675781 C 162.226562 80.714844 162.980469 80.734375 163.535156 80.734375 C 164.585938 80.734375 164.667969 80.734375 164.667969 80.300781 L 164.667969 74.273438 C 164.386719 74.570312 164.011719 74.667969 163.4375 74.667969 L 161.453125 74.667969 C 159.847656 74.667969 159.492188 74.253906 159.492188 72.824219 L 159.492188 71.554688 L 157.269531 71.554688 C 157.050781 73.539062 156.339844 74.925781 153.246094 75.621094 C 153.109375 75.261719 152.75 74.707031 152.433594 74.390625 L 152.433594 82.5 L 150.648438 82.5 L 150.648438 69.929688 L 154.4375 69.929688 C 154.238281 69.296875 153.917969 68.5 153.601562 67.90625 L 154.59375 67.710938 L 149.558594 67.710938 L 149.558594 65.984375 L 157.429688 65.984375 L 157.429688 63.902344 L 159.808594 64.039062 C 159.789062 64.21875 159.671875 64.316406 159.351562 64.378906 L 159.351562 65.984375 Z M 167.441406 65.984375 "/>
<path fill-rule="nonzero" fill="rgb(13.725281%, 9.803772%, 8.627319%)" fill-opacity="1" d="M 174.519531 78.96875 L 183.800781 78.96875 L 183.800781 73.875 L 174.519531 73.875 Z M 183.796875 67.035156 L 174.519531 67.035156 L 174.519531 72.011719 L 183.796875 72.011719 Z M 172.597656 65.132812 L 185.800781 65.132812 L 185.800781 82.101562 L 183.796875 82.101562 L 183.796875 80.875 L 174.519531 80.875 L 174.519531 82.183594 L 172.597656 82.183594 Z M 172.597656 65.132812 "/>
<path fill-rule="nonzero" fill="rgb(13.725281%, 9.803772%, 8.627319%)" fill-opacity="1" d="M 208.480469 69.890625 L 201.820312 69.890625 C 203.445312 73.140625 206.222656 76.136719 209.253906 77.683594 C 208.800781 78.058594 208.144531 78.832031 207.828125 79.347656 C 204.953125 77.703125 202.433594 74.847656 200.671875 71.574219 L 200.671875 76.96875 L 204.300781 76.96875 L 204.300781 78.871094 L 200.671875 78.871094 L 200.671875 82.460938 L 198.6875 82.460938 L 198.6875 78.871094 L 194.980469 78.871094 L 194.980469 76.96875 L 198.6875 76.96875 L 198.6875 71.574219 C 196.902344 74.886719 194.40625 77.703125 191.570312 79.40625 C 191.253906 78.929688 190.636719 78.21875 190.222656 77.839844 C 193.175781 76.273438 195.910156 73.199219 197.558594 69.890625 L 190.933594 69.890625 L 190.933594 67.988281 L 198.6875 67.988281 L 198.6875 63.902344 L 201.144531 64.0625 C 201.125 64.21875 200.988281 64.339844 200.671875 64.398438 L 200.671875 67.988281 L 208.480469 67.988281 Z M 208.480469 69.890625 "/>
<path fill-rule="nonzero" fill="rgb(13.725281%, 9.803772%, 8.627319%)" fill-opacity="1" d="M 219.167969 72.410156 L 217.265625 72.410156 L 217.265625 74.132812 L 219.167969 74.132812 Z M 216.015625 71.335938 L 220.476562 71.335938 L 220.476562 75.203125 L 216.015625 75.203125 Z M 222.855469 70.246094 C 222.996094 71.675781 223.171875 73.023438 223.429688 74.171875 C 223.945312 73.199219 224.363281 72.148438 224.660156 71 L 226.445312 71.4375 C 226.40625 71.574219 226.246094 71.675781 226.007812 71.675781 C 225.53125 73.28125 224.859375 74.769531 223.984375 76.035156 C 224.363281 76.949219 224.898438 77.621094 225.375 77.621094 C 225.613281 77.621094 225.792969 76.769531 225.890625 75.660156 C 226.207031 75.9375 226.761719 76.351562 227.078125 76.53125 C 226.859375 78.394531 226.246094 79.289062 225.394531 79.289062 C 225.214844 79.289062 224.996094 79.25 224.78125 79.148438 C 224.007812 78.953125 223.390625 78.316406 222.894531 77.40625 C 222.164062 78.214844 221.328125 78.890625 220.398438 79.445312 C 220.199219 79.148438 219.742188 78.632812 219.445312 78.355469 C 220.535156 77.742188 221.488281 76.910156 222.300781 75.898438 C 221.824219 74.351562 221.507812 72.386719 221.308594 70.246094 L 215.382812 70.246094 L 215.382812 68.859375 L 221.191406 68.859375 L 221.070312 66.914062 L 223.113281 67.015625 C 223.09375 67.171875 222.957031 67.3125 222.65625 67.332031 C 222.675781 67.847656 222.71875 68.363281 222.738281 68.859375 L 225.589844 68.859375 C 225.175781 68.402344 224.304688 67.828125 223.589844 67.472656 L 224.441406 66.597656 C 225.175781 66.933594 226.070312 67.492188 226.503906 67.925781 L 225.632812 68.859375 L 226.839844 68.859375 L 226.839844 70.246094 Z M 215.183594 76.808594 C 216.648438 76.609375 218.871094 76.273438 221.054688 75.917969 L 221.113281 77.125 C 219.1875 77.503906 217.246094 77.898438 215.976562 78.117188 C 215.957031 78.277344 215.855469 78.375 215.71875 78.414062 Z M 214.449219 79.941406 L 227.695312 79.941406 L 227.695312 66.5 L 214.449219 66.5 Z M 212.664062 64.792969 L 229.558594 64.792969 L 229.558594 82.539062 L 227.695312 82.539062 L 227.695312 81.648438 L 214.449219 81.648438 L 214.449219 82.539062 L 212.664062 82.539062 Z M 212.664062 64.792969 "/>
<path fill-rule="nonzero" fill="rgb(13.725281%, 9.803772%, 8.627319%)" fill-opacity="1" d="M 243.496094 79.742188 L 251.5625 79.742188 L 251.5625 81.628906 L 233.523438 81.628906 L 233.523438 79.742188 L 241.492188 79.742188 L 241.492188 72.128906 L 234.8125 72.128906 L 234.8125 70.246094 L 241.492188 70.246094 L 241.492188 63.941406 L 243.972656 64.101562 C 243.949219 64.277344 243.832031 64.378906 243.496094 64.4375 L 243.496094 70.246094 L 250.253906 70.246094 L 250.253906 72.128906 L 243.496094 72.128906 Z M 243.496094 79.742188 "/>
<path fill-rule="nonzero" fill="rgb(13.725281%, 9.803772%, 8.627319%)" fill-opacity="1" d="M 266.492188 70.265625 L 270.5 70.265625 L 270.5 68.761719 L 266.492188 68.761719 Z M 270.5 66.125 L 266.492188 66.125 L 266.492188 67.472656 L 270.5 67.472656 Z M 272.34375 64.714844 L 272.34375 80.160156 C 272.34375 82.042969 271.667969 82.460938 268.296875 82.421875 C 268.238281 81.90625 267.980469 81.054688 267.703125 80.558594 C 268.21875 80.578125 268.734375 80.578125 269.171875 80.578125 C 270.359375 80.578125 270.5 80.578125 270.5 80.140625 L 270.5 71.65625 L 264.6875 71.65625 L 264.6875 64.714844 Z M 262.648438 76.195312 L 265.046875 76.195312 L 265.046875 74.292969 L 262.648438 74.292969 Z M 269.230469 77.761719 L 266.730469 77.761719 L 266.730469 82.101562 L 265.046875 82.101562 L 265.046875 77.761719 L 262.589844 77.761719 C 262.386719 79.050781 261.714844 81.070312 259.949219 82.261719 C 259.691406 81.925781 259.117188 81.390625 258.742188 81.152344 C 260.1875 80.21875 260.765625 78.8125 260.941406 77.761719 L 258.660156 77.761719 L 258.660156 76.195312 L 261.019531 76.195312 L 261.019531 74.292969 L 259.019531 74.292969 L 259.019531 72.785156 L 268.832031 72.785156 L 268.832031 74.292969 L 266.730469 74.292969 L 266.730469 76.195312 L 269.230469 76.195312 Z M 257.472656 70.226562 L 261.359375 70.226562 L 261.359375 68.761719 L 257.472656 68.761719 Z M 261.359375 66.125 L 257.472656 66.125 L 257.472656 67.472656 L 261.359375 67.472656 Z M 263.125 71.613281 L 257.472656 71.613281 L 257.472656 82.480469 L 255.628906 82.480469 L 255.628906 64.714844 L 263.125 64.714844 Z M 263.125 71.613281 "/>
<path fill-rule="nonzero" fill="rgb(13.725281%, 9.803772%, 8.627319%)" fill-opacity="1" d="M 287.011719 77.027344 C 287.449219 77.78125 288.042969 78.4375 288.796875 78.992188 C 289.472656 78.4375 290.046875 77.78125 290.464844 77.027344 Z M 292.027344 65.269531 C 291.929688 65.367188 291.75 65.410156 291.554688 65.367188 C 290.9375 65.902344 289.929688 66.675781 289.113281 67.234375 C 289.453125 67.628906 289.808594 68.003906 290.203125 68.363281 C 291.078125 67.730469 292.148438 66.777344 292.800781 66.101562 L 294.371094 67.273438 C 294.289062 67.371094 294.109375 67.410156 293.894531 67.371094 C 293.257812 67.925781 292.1875 68.699219 291.335938 69.253906 C 292.367188 69.988281 293.515625 70.5625 294.785156 70.941406 C 294.390625 71.277344 293.894531 71.972656 293.636719 72.40625 C 292.800781 72.109375 292.011719 71.734375 291.277344 71.296875 L 291.277344 73.003906 C 291.277344 73.480469 291.277344 73.558594 291.632812 73.558594 C 292.328125 73.558594 292.40625 73.558594 292.464844 73.539062 C 292.722656 73.480469 292.742188 73.179688 292.78125 72.585938 C 293.078125 72.84375 293.675781 73.121094 294.109375 73.261719 C 294.03125 74.191406 293.953125 74.925781 292.285156 74.925781 L 291.257812 74.925781 C 289.671875 74.925781 289.671875 73.816406 289.671875 72.902344 L 289.671875 71.355469 L 287.3125 71.355469 C 287.3125 72.289062 287.210938 74.210938 285.128906 75.441406 C 284.890625 75.125 284.277344 74.507812 283.941406 74.292969 C 285.507812 73.4375 285.746094 72.367188 285.746094 71.375 L 285.746094 69.890625 L 289.371094 69.890625 C 287.726562 68.421875 286.457031 66.519531 285.585938 64.316406 L 287.09375 63.902344 C 287.410156 64.675781 287.785156 65.429688 288.261719 66.121094 C 289.035156 65.488281 289.90625 64.695312 290.445312 64.101562 Z M 291.671875 75.660156 L 292.703125 76.035156 C 292.683594 76.136719 292.605469 76.195312 292.5625 76.273438 C 292.050781 77.742188 291.234375 78.910156 290.1875 79.824219 C 291.277344 80.359375 292.5625 80.734375 293.992188 80.933594 C 293.613281 81.289062 293.140625 81.984375 292.902344 82.460938 C 291.316406 82.164062 289.90625 81.628906 288.757812 80.894531 C 287.570312 81.605469 286.199219 82.125 284.695312 82.480469 C 284.535156 82.0625 284.179688 81.449219 283.859375 81.09375 C 285.167969 80.855469 286.378906 80.457031 287.429688 79.902344 C 286.636719 79.167969 285.980469 78.296875 285.507812 77.304688 L 286.515625 77.027344 L 284.792969 77.027344 L 284.792969 75.699219 L 291.375 75.699219 Z M 282.414062 76.355469 L 282.808594 76.332031 L 283.78125 76.492188 C 283.78125 76.632812 283.742188 76.828125 283.703125 76.988281 C 283.285156 82.28125 282.910156 82.421875 280.152344 82.421875 C 279.675781 82.421875 279.160156 82.421875 278.605469 82.402344 C 278.566406 81.886719 278.367188 81.230469 278.070312 80.796875 C 279.101562 80.894531 280.152344 80.894531 280.53125 80.894531 C 280.886719 80.894531 281.105469 80.875 281.285156 80.714844 C 281.558594 80.457031 281.757812 79.625 281.9375 77.761719 L 278.863281 77.761719 C 278.804688 77.960938 278.765625 78.15625 278.726562 78.335938 L 277.199219 78.078125 C 277.515625 76.808594 277.875 74.808594 278.070312 73.261719 L 282.015625 73.261719 L 282.015625 71.398438 L 279.398438 71.398438 C 278.628906 71.890625 277.832031 72.308594 277.019531 72.664062 C 276.78125 72.230469 276.304688 71.613281 275.929688 71.257812 C 277.140625 70.820312 278.367188 70.128906 279.460938 69.273438 C 278.964844 68.800781 278.070312 68.164062 277.335938 67.730469 L 278.410156 66.71875 C 279.179688 67.113281 280.152344 67.75 280.667969 68.246094 C 281.261719 67.628906 281.820312 66.976562 282.234375 66.28125 L 277.378906 66.28125 L 277.378906 64.773438 L 283.285156 64.773438 L 283.601562 64.695312 L 284.851562 65.289062 C 284.792969 65.410156 284.695312 65.46875 284.59375 65.546875 C 283.902344 67.234375 282.730469 68.699219 281.363281 69.929688 L 283.703125 69.929688 L 283.703125 75.085938 L 282.015625 75.085938 L 282.015625 74.6875 L 279.417969 74.6875 L 279.121094 76.355469 Z M 282.414062 76.355469 "/>
<path fill-rule="nonzero" fill="rgb(13.725281%, 9.803772%, 8.627319%)" fill-opacity="1" d="M 136.121094 93.960938 C 136.519531 94.800781 137.085938 95.566406 137.769531 96.234375 C 138.421875 95.582031 138.960938 94.8125 139.34375 93.960938 Z M 140.296875 92.65625 L 141.175781 93.023438 C 141.148438 93.125 141.078125 93.167969 141.023438 93.222656 C 140.566406 94.773438 139.785156 96.050781 138.792969 97.085938 C 139.742188 97.753906 140.839844 98.28125 142.046875 98.605469 C 141.734375 98.878906 141.335938 99.417969 141.121094 99.773438 C 139.871094 99.375 138.75 98.765625 137.78125 97.996094 C 136.789062 98.777344 135.652344 99.359375 134.441406 99.773438 C 134.289062 99.433594 133.960938 98.878906 133.691406 98.59375 C 134.800781 98.28125 135.863281 97.769531 136.789062 97.085938 C 136.007812 96.292969 135.367188 95.367188 134.871094 94.347656 L 135.933594 93.960938 L 134.386719 93.960938 L 134.386719 92.710938 L 140.054688 92.710938 Z M 132.453125 88.191406 L 130.734375 88.191406 L 130.734375 90.238281 L 132.453125 90.238281 Z M 130.734375 92.128906 C 130.734375 92.582031 130.734375 93.066406 130.707031 93.578125 L 132.453125 93.578125 L 132.453125 91.488281 L 130.734375 91.488281 Z M 136.445312 88.675781 C 136.445312 89.96875 136.148438 91.5625 134.65625 92.597656 C 134.472656 92.371094 133.988281 91.945312 133.703125 91.757812 L 133.703125 98.210938 C 133.703125 99.574219 133.136719 99.757812 131.234375 99.730469 C 131.203125 99.390625 131.035156 98.777344 130.847656 98.4375 C 131.160156 98.453125 131.445312 98.453125 131.6875 98.453125 C 132.382812 98.453125 132.453125 98.453125 132.453125 98.183594 L 132.453125 94.855469 L 130.652344 94.855469 C 130.523438 96.589844 130.238281 98.410156 129.597656 99.757812 C 129.359375 99.558594 128.816406 99.246094 128.503906 99.132812 C 129.441406 97.128906 129.515625 94.246094 129.515625 92.128906 L 129.515625 86.941406 L 133.703125 86.941406 L 133.703125 91.675781 C 134.96875 90.808594 135.152344 89.628906 135.152344 88.632812 L 135.152344 86.902344 L 139.855469 86.902344 L 139.855469 90.4375 C 139.855469 90.792969 139.886719 90.835938 140.070312 90.835938 L 140.597656 90.835938 C 140.808594 90.835938 140.867188 90.636719 140.894531 89.257812 C 141.148438 89.457031 141.660156 89.671875 142.015625 89.742188 C 141.902344 91.519531 141.589844 91.988281 140.753906 91.988281 L 139.855469 91.988281 C 138.878906 91.988281 138.578125 91.644531 138.578125 90.453125 L 138.578125 88.152344 L 136.445312 88.152344 Z M 136.445312 88.675781 "/>
<path fill-rule="nonzero" fill="rgb(13.725281%, 9.803772%, 8.627319%)" fill-opacity="1" d="M 154.664062 86.828125 C 155.046875 88.945312 156.058594 90.90625 157.476562 91.902344 C 157.179688 92.15625 156.710938 92.695312 156.484375 93.039062 C 156.183594 92.796875 155.914062 92.527344 155.660156 92.214844 C 155.660156 92.339844 155.660156 92.511719 155.644531 92.65625 C 155.53125 97.058594 155.402344 98.636719 155.019531 99.148438 C 154.75 99.503906 154.464844 99.628906 154.054688 99.6875 C 153.839844 99.714844 153.527344 99.730469 153.1875 99.730469 C 152.945312 99.730469 152.675781 99.730469 152.40625 99.714844 C 152.378906 99.320312 152.234375 98.75 152.023438 98.378906 C 152.605469 98.4375 153.128906 98.4375 153.371094 98.4375 C 153.597656 98.4375 153.710938 98.410156 153.839844 98.253906 C 154.066406 97.953125 154.195312 96.71875 154.28125 93.40625 L 152.066406 93.40625 C 151.835938 95.824219 151.125 98.238281 148.597656 99.730469 C 148.457031 99.417969 148.085938 98.949219 147.800781 98.707031 C 149.976562 97.558594 150.542969 95.582031 150.742188 93.40625 L 148.953125 93.40625 L 148.953125 92.285156 C 148.726562 92.570312 148.484375 92.839844 148.242188 93.082031 C 148.070312 92.8125 147.6875 92.339844 147.445312 92.113281 C 148.484375 91.09375 149.320312 89.429688 149.71875 88.09375 L 151.253906 88.535156 C 151.210938 88.632812 151.097656 88.691406 150.914062 88.691406 C 150.515625 89.757812 149.863281 91.09375 149.023438 92.1875 L 154.621094 92.1875 L 154.921875 92.171875 L 155.660156 92.214844 C 154.707031 91.09375 153.996094 89.601562 153.597656 88.023438 L 150.601562 88.023438 L 150.601562 86.828125 Z M 147.519531 90.480469 C 147.488281 90.59375 147.390625 90.695312 147.175781 90.707031 L 147.175781 99.746094 L 145.855469 99.746094 L 145.855469 92.527344 C 145.472656 93.167969 145.089844 93.761719 144.675781 94.289062 C 144.492188 93.988281 144.09375 93.40625 143.835938 93.136719 C 145.074219 91.601562 146.28125 88.960938 147.007812 86.433594 L 148.613281 86.914062 C 148.554688 87.015625 148.425781 87.085938 148.242188 87.070312 C 147.886719 88.164062 147.445312 89.289062 146.964844 90.339844 Z M 147.519531 90.480469 "/>
<path fill-rule="nonzero" fill="rgb(13.725281%, 9.803772%, 8.627319%)" fill-opacity="1" d="M 163.84375 95.78125 L 169.171875 95.78125 L 169.171875 94.515625 L 163.84375 94.515625 Z M 169.171875 92.128906 L 163.84375 92.128906 L 163.84375 93.378906 L 169.171875 93.378906 Z M 172.300781 89.527344 L 164.65625 89.527344 C 164.457031 90.011719 164.226562 90.480469 163.972656 90.949219 L 170.523438 90.949219 L 170.523438 98.125 C 170.523438 99.628906 169.824219 99.714844 167.296875 99.714844 C 167.253906 99.332031 167.054688 98.75 166.871094 98.378906 C 167.296875 98.394531 167.722656 98.410156 168.078125 98.410156 C 169.117188 98.410156 169.171875 98.410156 169.171875 98.109375 L 169.171875 96.917969 L 163.84375 96.917969 L 163.84375 99.730469 L 162.480469 99.730469 L 162.480469 93.25 C 161.828125 94.074219 161.089844 94.828125 160.234375 95.453125 C 160.023438 95.15625 159.570312 94.65625 159.300781 94.386719 C 160.976562 93.207031 162.238281 91.433594 163.121094 89.527344 L 159.640625 89.527344 L 159.640625 88.234375 L 163.660156 88.234375 C 163.886719 87.625 164.074219 87.015625 164.226562 86.417969 L 165.917969 86.84375 C 165.890625 86.972656 165.761719 87.042969 165.566406 87.027344 C 165.449219 87.425781 165.308594 87.824219 165.167969 88.234375 L 172.300781 88.234375 Z M 172.300781 89.527344 "/>
<path fill-rule="nonzero" fill="rgb(13.725281%, 9.803772%, 8.627319%)" fill-opacity="1" d="M 181.777344 92.441406 L 185.699219 92.441406 L 185.699219 90.863281 L 181.777344 90.863281 Z M 185.699219 88.25 L 181.777344 88.25 L 181.777344 89.742188 L 185.699219 89.742188 Z M 184.277344 93.605469 C 184.460938 94.246094 184.691406 94.871094 184.960938 95.425781 C 185.542969 94.914062 186.152344 94.300781 186.550781 93.820312 L 187.757812 94.730469 C 187.703125 94.800781 187.558594 94.828125 187.40625 94.800781 C 186.933594 95.269531 186.167969 95.90625 185.515625 96.40625 C 186.152344 97.359375 186.976562 98.109375 188.015625 98.566406 C 187.71875 98.820312 187.320312 99.347656 187.121094 99.6875 C 185.003906 98.59375 183.78125 96.40625 183.113281 93.605469 L 181.777344 93.605469 L 181.777344 97.683594 C 182.546875 97.542969 183.339844 97.386719 184.136719 97.230469 L 184.25 98.410156 C 182.546875 98.808594 180.769531 99.203125 179.644531 99.445312 C 179.617188 99.574219 179.535156 99.660156 179.433594 99.671875 L 178.894531 98.222656 C 179.347656 98.136719 179.875 98.054688 180.46875 97.941406 L 180.46875 87.070312 L 187.019531 87.070312 L 187.019531 93.605469 Z M 179.035156 87 L 179.917969 87.484375 C 179.886719 87.554688 179.847656 87.625 179.789062 87.667969 C 179.417969 88.789062 178.878906 90.28125 178.382812 91.433594 C 179.476562 92.570312 179.847656 93.492188 179.847656 94.386719 C 179.847656 96.632812 178.382812 96.574219 177.246094 96.535156 C 177.230469 96.191406 177.101562 95.679688 176.933594 95.355469 C 177.144531 95.382812 177.347656 95.398438 177.515625 95.398438 C 178.238281 95.398438 178.582031 95.242188 178.582031 94.273438 C 178.582031 93.535156 178.195312 92.640625 177.160156 91.589844 C 177.558594 90.59375 177.957031 89.273438 178.253906 88.265625 L 176.519531 88.265625 L 176.519531 99.746094 L 175.257812 99.746094 L 175.257812 87.042969 L 178.824219 87.042969 Z M 179.035156 87 "/>
<path fill-rule="nonzero" fill="rgb(13.725281%, 9.803772%, 8.627319%)" fill-opacity="1" d="M 199.285156 86.816406 C 200.195312 88.605469 201.914062 90.765625 203.234375 91.972656 C 202.878906 92.242188 202.367188 92.769531 202.097656 93.136719 C 200.761719 91.730469 199.027344 89.375 197.949219 87.371094 Z M 197.183594 92.144531 C 197.125 92.269531 196.980469 92.34375 196.769531 92.355469 C 196.128906 93.960938 195.164062 96.007812 194.253906 97.628906 C 196.046875 97.570312 198.0625 97.5 200.050781 97.429688 C 199.441406 96.519531 198.757812 95.582031 198.117188 94.785156 L 199.414062 94.191406 C 200.707031 95.722656 202.125 97.726562 202.835938 99.0625 L 201.457031 99.800781 C 201.289062 99.460938 201.074219 99.0625 200.820312 98.636719 C 197.367188 98.847656 193.785156 99.019531 191.46875 99.121094 C 191.441406 99.246094 191.34375 99.316406 191.214844 99.332031 L 190.675781 97.726562 C 191.273438 97.710938 191.953125 97.699219 192.722656 97.667969 C 193.6875 95.9375 194.765625 93.492188 195.363281 91.644531 Z M 195.632812 87.382812 C 195.5625 87.511719 195.40625 87.554688 195.25 87.539062 C 194.324219 89.613281 192.890625 91.746094 191.398438 93.109375 C 191.113281 92.839844 190.5625 92.386719 190.203125 92.171875 C 191.652344 90.964844 193.074219 88.875 193.886719 86.816406 Z M 195.632812 87.382812 "/>
<path fill-rule="nonzero" fill="rgb(13.725281%, 9.803772%, 8.627319%)" fill-opacity="1" d="M 211.917969 93.535156 L 208.308594 93.535156 L 208.308594 96.066406 L 211.917969 96.066406 Z M 207.640625 92.371094 L 207.640625 92.355469 L 213.238281 92.355469 L 213.238281 97.242188 L 208.308594 97.242188 L 208.308594 98.464844 L 207 98.464844 L 207 92.371094 Z M 214.644531 91.0625 L 206.078125 91.0625 L 206.078125 89.871094 L 214.644531 89.871094 Z M 217.558594 87.328125 L 217.558594 97.96875 C 217.558594 99.574219 216.945312 99.757812 214.121094 99.757812 C 214.0625 99.347656 213.863281 98.679688 213.652344 98.28125 C 214.234375 98.308594 214.84375 98.324219 215.269531 98.324219 C 216.066406 98.324219 216.179688 98.324219 216.179688 97.953125 L 216.179688 88.621094 L 206.035156 88.621094 L 206.035156 87.328125 Z M 217.558594 87.328125 "/>
<path fill-rule="nonzero" fill="rgb(13.725281%, 9.803772%, 8.627319%)" fill-opacity="1" d="M 230.519531 94.914062 L 224.082031 94.914062 L 224.082031 97.882812 L 230.519531 97.882812 Z M 222.734375 99.746094 L 222.734375 93.621094 L 231.910156 93.621094 L 231.910156 99.6875 L 230.519531 99.6875 L 230.519531 99.191406 L 224.082031 99.191406 L 224.082031 99.746094 Z M 230.007812 88.222656 C 231.5 89.359375 233.273438 90.992188 234.054688 92.1875 L 232.90625 93.125 C 232.679688 92.753906 232.351562 92.328125 231.96875 91.886719 C 228.046875 92.074219 223.910156 92.214844 221.355469 92.285156 C 221.328125 92.425781 221.210938 92.484375 221.085938 92.496094 L 220.601562 90.933594 L 223.03125 90.894531 C 223.925781 89.601562 224.933594 87.765625 225.515625 86.347656 L 227.207031 87 C 227.152344 87.113281 227.007812 87.15625 226.824219 87.15625 C 226.253906 88.277344 225.402344 89.699219 224.609375 90.851562 C 226.539062 90.808594 228.699219 90.738281 230.832031 90.679688 C 230.21875 90.082031 229.582031 89.515625 228.96875 89.03125 Z M 230.007812 88.222656 "/>
<path fill-rule="nonzero" fill="rgb(13.725281%, 9.803772%, 8.627319%)" fill-opacity="1" d="M 248.59375 93.308594 C 248.507812 92.8125 248.28125 92.03125 248.054688 91.433594 L 248.765625 91.234375 C 249.003906 91.816406 249.246094 92.570312 249.347656 93.066406 Z M 243.492188 92.796875 L 244.53125 92.796875 L 244.53125 91.988281 L 243.492188 91.988281 Z M 245.269531 87.425781 L 242.769531 87.425781 L 242.769531 86.730469 L 245.269531 86.730469 Z M 242.667969 91.320312 L 245.394531 91.320312 L 245.394531 93.464844 L 242.667969 93.464844 Z M 242.667969 90.183594 L 245.382812 90.183594 L 245.382812 90.878906 L 242.667969 90.878906 Z M 245.382812 89.757812 L 242.667969 89.757812 L 242.667969 89.058594 L 245.382812 89.058594 Z M 242.15625 91.25 C 242.3125 91.730469 242.46875 92.371094 242.527344 92.769531 L 241.816406 92.96875 C 241.757812 92.554688 241.617188 91.902344 241.476562 91.402344 Z M 247.640625 96.929688 L 247.910156 96.886719 L 248.679688 97.117188 C 248.664062 97.214844 248.621094 97.328125 248.566406 97.398438 C 248.113281 99.6875 247.613281 99.746094 246.050781 99.746094 C 245.652344 99.746094 245.125 99.730469 244.601562 99.703125 C 244.585938 99.390625 244.445312 98.976562 244.261719 98.695312 C 245.054688 98.765625 245.878906 98.777344 246.195312 98.777344 C 246.734375 98.777344 246.933594 98.777344 247.1875 97.8125 L 241.191406 97.8125 L 241.078125 98.210938 L 239.855469 98.027344 C 240.113281 97.328125 240.382812 96.320312 240.566406 95.480469 L 246.660156 95.480469 L 246.660156 94.855469 L 239.96875 94.855469 L 239.96875 94.019531 L 247.910156 94.019531 L 247.910156 96.320312 L 241.605469 96.320312 L 241.449219 96.929688 Z M 240.410156 93.664062 L 240.410156 91.632812 C 240.367188 91.644531 240.324219 91.644531 240.28125 91.644531 C 240.125 92.285156 239.871094 93.039062 239.542969 93.507812 C 239.386719 93.363281 239.101562 93.167969 238.902344 93.054688 C 239.1875 92.613281 239.402344 91.902344 239.527344 91.21875 L 240.410156 91.476562 L 240.410156 90.820312 L 239.542969 90.878906 C 239.515625 90.980469 239.429688 91.035156 239.34375 91.046875 L 239.046875 90.011719 L 239.796875 89.996094 C 239.957031 89.800781 240.125 89.585938 240.28125 89.359375 C 239.984375 89.019531 239.570312 88.648438 239.1875 88.363281 L 239.65625 87.695312 L 239.828125 87.808594 C 240.097656 87.355469 240.367188 86.800781 240.507812 86.402344 L 241.476562 86.886719 C 241.433594 86.972656 241.320312 87.015625 241.175781 87 C 241.007812 87.355469 240.707031 87.851562 240.4375 88.277344 C 240.566406 88.378906 240.695312 88.492188 240.792969 88.605469 C 241.035156 88.25 241.25 87.894531 241.417969 87.582031 L 242.257812 88.066406 L 242.257812 87.851562 L 245.710938 87.851562 L 245.710938 88.222656 L 246.09375 87.679688 L 246.292969 87.808594 C 246.5625 87.355469 246.847656 86.800781 247.015625 86.402344 L 247.96875 86.902344 C 247.925781 86.972656 247.824219 87.015625 247.683594 87.015625 C 247.472656 87.355469 247.171875 87.851562 246.890625 88.277344 C 247.03125 88.40625 247.171875 88.535156 247.285156 88.648438 C 247.570312 88.265625 247.824219 87.882812 248.011719 87.554688 L 248.949219 88.09375 C 248.90625 88.195312 248.765625 88.207031 248.636719 88.195312 C 248.28125 88.703125 247.742188 89.402344 247.214844 89.984375 L 248.238281 89.953125 C 248.152344 89.785156 248.070312 89.613281 247.984375 89.472656 L 248.652344 89.171875 C 248.960938 89.65625 249.261719 90.324219 249.375 90.765625 L 248.652344 91.089844 L 248.535156 90.695312 L 247.882812 90.75 L 247.882812 93.664062 L 246.988281 93.664062 L 246.988281 91.589844 C 246.945312 91.617188 246.875 91.644531 246.761719 91.644531 C 246.617188 92.269531 246.363281 93.023438 246.035156 93.480469 C 245.878906 93.351562 245.59375 93.136719 245.410156 93.023438 C 245.679688 92.597656 245.894531 91.902344 246.023438 91.21875 L 246.988281 91.503906 L 246.988281 90.808594 C 246.617188 90.835938 246.292969 90.851562 246.023438 90.863281 C 245.996094 90.964844 245.910156 91.019531 245.808594 91.046875 L 245.523438 90.011719 L 246.25 89.996094 L 246.761719 89.375 C 246.460938 89.058594 246.078125 88.691406 245.710938 88.40625 L 245.710938 88.621094 L 242.257812 88.621094 L 242.257812 88.207031 C 242.199219 88.222656 242.144531 88.234375 242.058594 88.234375 C 241.730469 88.734375 241.234375 89.402344 240.75 89.984375 L 241.648438 89.96875 L 241.433594 89.472656 L 242.042969 89.230469 C 242.300781 89.726562 242.527344 90.382812 242.613281 90.808594 L 241.945312 91.0625 C 241.929688 90.964844 241.902344 90.835938 241.875 90.707031 L 241.304688 90.765625 L 241.304688 93.664062 Z M 236.246094 98.863281 C 236.789062 97.742188 237.511719 95.90625 238.050781 94.261719 L 239.117188 94.957031 C 238.664062 96.464844 238.039062 98.125 237.570312 99.21875 C 237.640625 99.289062 237.679688 99.390625 237.679688 99.460938 C 237.679688 99.515625 237.667969 99.574219 237.640625 99.628906 Z M 237.015625 86.628906 C 237.738281 87.027344 238.632812 87.652344 239.074219 88.121094 L 238.25 89.128906 C 237.851562 88.632812 236.957031 87.964844 236.234375 87.527344 Z M 236.6875 90.410156 C 237.425781 90.765625 238.363281 91.347656 238.804688 91.800781 L 238.023438 92.839844 C 237.597656 92.386719 236.671875 91.730469 235.949219 91.332031 Z M 236.6875 90.410156 "/>
<path fill-rule="nonzero" fill="rgb(13.725281%, 9.803772%, 8.627319%)" fill-opacity="1" d="M 260.601562 86.644531 C 261.527344 88.535156 263.359375 90.664062 264.921875 91.832031 C 264.566406 92.113281 264.039062 92.65625 263.785156 93.023438 C 263.386719 92.683594 262.988281 92.285156 262.578125 91.84375 C 262.578125 91.957031 262.5625 92.128906 262.546875 92.285156 C 262.363281 96.804688 262.164062 98.480469 261.667969 99.046875 C 261.339844 99.460938 261 99.574219 260.472656 99.644531 C 260.246094 99.671875 259.933594 99.6875 259.578125 99.6875 C 259.167969 99.6875 258.699219 99.671875 258.230469 99.644531 C 258.214844 99.234375 258.03125 98.664062 257.789062 98.28125 C 258.667969 98.367188 259.492188 98.378906 259.835938 98.378906 C 260.121094 98.378906 260.289062 98.335938 260.445312 98.179688 C 260.789062 97.828125 260.972656 96.460938 261.113281 93.09375 L 257.746094 93.09375 C 257.347656 95.75 256.59375 98.410156 252.757812 99.816406 C 252.601562 99.460938 252.207031 98.90625 251.890625 98.609375 C 255.230469 97.5 256 95.398438 256.3125 93.09375 L 253.597656 93.09375 L 253.597656 91.929688 C 253.15625 92.371094 252.703125 92.769531 252.234375 93.125 C 251.992188 92.851562 251.480469 92.355469 251.167969 92.113281 C 252.886719 90.949219 254.519531 88.875 255.417969 86.671875 L 257.09375 87.242188 C 257.035156 87.355469 256.894531 87.425781 256.695312 87.398438 C 255.96875 89.003906 254.917969 90.550781 253.738281 91.789062 L 261.496094 91.789062 L 261.808594 91.773438 L 262.578125 91.84375 C 261.339844 90.507812 260.132812 88.804688 259.292969 87.171875 Z M 260.601562 86.644531 "/>
<path fill-rule="nonzero" fill="rgb(13.725281%, 9.803772%, 8.627319%)" fill-opacity="1" d="M 276.019531 86.816406 C 276.929688 88.605469 278.648438 90.765625 279.96875 91.972656 C 279.617188 92.242188 279.105469 92.769531 278.832031 93.136719 C 277.496094 91.730469 275.765625 89.375 274.683594 87.371094 Z M 273.917969 92.144531 C 273.859375 92.269531 273.71875 92.34375 273.503906 92.355469 C 272.867188 93.960938 271.898438 96.007812 270.992188 97.628906 C 272.78125 97.570312 274.796875 97.5 276.789062 97.429688 C 276.175781 96.519531 275.496094 95.582031 274.855469 94.785156 L 276.148438 94.191406 C 277.441406 95.722656 278.863281 97.726562 279.574219 99.0625 L 278.195312 99.800781 C 278.023438 99.460938 277.808594 99.0625 277.554688 98.636719 C 274.101562 98.847656 270.523438 99.019531 268.207031 99.121094 C 268.175781 99.246094 268.078125 99.316406 267.949219 99.332031 L 267.410156 97.726562 C 268.007812 97.710938 268.6875 97.699219 269.457031 97.667969 C 270.421875 95.9375 271.5 93.492188 272.097656 91.644531 Z M 272.371094 87.382812 C 272.296875 87.511719 272.140625 87.554688 271.984375 87.539062 C 271.0625 89.613281 269.625 91.746094 268.132812 93.109375 C 267.851562 92.839844 267.296875 92.386719 266.941406 92.171875 C 268.390625 90.964844 269.8125 88.875 270.621094 86.816406 Z M 272.371094 87.382812 "/>
<path fill-rule="nonzero" fill="rgb(13.725281%, 9.803772%, 8.627319%)" fill-opacity="1" d="M 288.652344 93.535156 L 285.046875 93.535156 L 285.046875 96.066406 L 288.652344 96.066406 Z M 284.378906 92.371094 L 284.378906 92.355469 L 289.976562 92.355469 L 289.976562 97.242188 L 285.046875 97.242188 L 285.046875 98.464844 L 283.738281 98.464844 L 283.738281 92.371094 Z M 291.382812 91.0625 L 282.8125 91.0625 L 282.8125 89.871094 L 291.382812 89.871094 Z M 294.292969 87.328125 L 294.292969 97.96875 C 294.292969 99.574219 293.683594 99.757812 290.855469 99.757812 C 290.796875 99.347656 290.601562 98.679688 290.386719 98.28125 C 290.96875 98.308594 291.578125 98.324219 292.007812 98.324219 C 292.800781 98.324219 292.914062 98.324219 292.914062 97.953125 L 292.914062 88.621094 L 282.773438 88.621094 L 282.773438 87.328125 Z M 294.292969 87.328125 "/>
</svg>
