<?xml version="1.0" encoding="UTF-8"?>
<svg xmlns="http://www.w3.org/2000/svg" xmlns:xlink="http://www.w3.org/1999/xlink" width="276.452pt" height="286.034pt" viewBox="0 0 276.452 286.034">
<path fill-rule="nonzero" fill="rgb(67.451477%, 8.235168%, 20.783997%)" fill-opacity="1" d="M 61.546875 32.484375 L 61.546875 196.941406 L 92.503906 196.941406 L 92.503906 63.441406 Z M 61.546875 32.484375 "/>
<path fill-rule="nonzero" fill="rgb(0%, 29.411316%, 25.881958%)" fill-opacity="1" d="M 214.257812 202.777344 L 214.257812 38.320312 L 183.296875 38.320312 L 183.296875 171.820312 Z M 214.257812 202.777344 "/>
<path fill-rule="nonzero" fill="rgb(13.725281%, 9.803772%, 8.627319%)" fill-opacity="1" d="M 154.890625 242.441406 C 154.890625 242.941406 154.863281 243.457031 154.800781 243.976562 C 154.75 244.488281 154.65625 244.949219 154.515625 245.367188 C 154.3125 246.03125 154.019531 246.640625 153.640625 247.191406 C 153.265625 247.726562 152.785156 248.195312 152.222656 248.582031 C 151.652344 248.96875 150.96875 249.273438 150.199219 249.488281 C 149.414062 249.699219 148.503906 249.8125 147.488281 249.8125 C 145.625 249.8125 144.121094 249.453125 143.015625 248.753906 C 141.914062 248.054688 141.109375 247.085938 140.644531 245.882812 C 140.453125 245.398438 140.3125 244.847656 140.214844 244.242188 C 140.128906 243.632812 140.085938 243.023438 140.085938 242.441406 L 140.085938 225.257812 L 135.621094 225.257812 L 135.621094 242.355469 C 135.621094 243.105469 135.667969 243.878906 135.765625 244.652344 C 135.863281 245.441406 136.027344 246.199219 136.253906 246.898438 C 136.574219 247.859375 137.023438 248.761719 137.605469 249.574219 C 138.1875 250.40625 138.949219 251.128906 139.855469 251.730469 C 140.765625 252.332031 141.859375 252.800781 143.105469 253.128906 C 144.351562 253.464844 145.804688 253.628906 147.441406 253.628906 C 149.152344 253.628906 150.671875 253.449219 151.949219 253.089844 C 153.238281 252.734375 154.367188 252.222656 155.285156 251.574219 C 156.222656 250.925781 156.992188 250.144531 157.570312 249.257812 C 158.15625 248.375 158.59375 247.40625 158.878906 246.371094 C 159.042969 245.753906 159.167969 245.085938 159.238281 244.378906 C 159.316406 243.671875 159.355469 242.992188 159.355469 242.355469 L 159.355469 225.257812 L 154.890625 225.257812 Z M 154.890625 242.441406 "/>
<path fill-rule="nonzero" fill="rgb(13.725281%, 9.803772%, 8.627319%)" fill-opacity="1" d="M 167.652344 229.195312 L 169.757812 229.195312 C 171.019531 229.195312 172.167969 229.242188 173.175781 229.34375 C 174.164062 229.433594 175.066406 229.605469 175.871094 229.851562 C 177.9375 230.503906 179.546875 231.621094 180.640625 233.164062 C 181.746094 234.71875 182.304688 236.792969 182.304688 239.324219 C 182.304688 241.882812 181.746094 244 180.636719 245.628906 C 179.542969 247.242188 177.933594 248.394531 175.875 249.042969 C 175.066406 249.289062 174.164062 249.460938 173.175781 249.550781 C 172.167969 249.652344 171.019531 249.691406 169.757812 249.691406 L 167.652344 249.691406 Z M 184.089844 230.914062 C 183.277344 229.777344 182.238281 228.773438 181.003906 227.945312 C 179.773438 227.113281 178.324219 226.464844 176.6875 226.003906 C 175.75 225.734375 174.722656 225.554688 173.636719 225.445312 C 172.550781 225.339844 171.375 225.289062 170.125 225.289062 L 163.410156 225.289062 L 163.410156 253.605469 L 170.070312 253.605469 C 171.320312 253.605469 172.492188 253.546875 173.574219 253.449219 C 174.664062 253.34375 175.691406 253.152344 176.621094 252.890625 C 178.257812 252.429688 179.714844 251.765625 180.945312 250.925781 C 182.179688 250.078125 183.222656 249.058594 184.050781 247.890625 C 184.875 246.722656 185.5 245.398438 185.90625 243.953125 C 186.316406 242.503906 186.523438 240.953125 186.523438 239.324219 C 186.523438 237.703125 186.316406 236.175781 185.921875 234.769531 C 185.519531 233.347656 184.90625 232.054688 184.089844 230.914062 "/>
<path fill-rule="nonzero" fill="rgb(13.725281%, 9.803772%, 8.627319%)" fill-opacity="1" d="M 211.902344 239.464844 C 211.902344 241.238281 211.671875 242.828125 211.207031 244.167969 C 210.75 245.5 210.109375 246.625 209.308594 247.503906 C 208.515625 248.394531 207.570312 249.066406 206.5 249.519531 C 204.34375 250.421875 201.609375 250.414062 199.445312 249.511719 C 198.359375 249.066406 197.40625 248.394531 196.617188 247.503906 C 195.816406 246.625 195.175781 245.5 194.707031 244.15625 C 194.238281 242.820312 194 241.238281 194 239.464844 C 194 237.6875 194.234375 236.101562 194.695312 234.75 C 195.152344 233.421875 195.796875 232.292969 196.597656 231.40625 C 197.390625 230.519531 198.34375 229.835938 199.421875 229.382812 C 200.515625 228.921875 201.699219 228.691406 202.949219 228.691406 C 204.207031 228.691406 205.390625 228.921875 206.476562 229.382812 C 207.5625 229.835938 208.515625 230.519531 209.308594 231.40625 C 210.109375 232.292969 210.75 233.421875 211.207031 234.75 C 211.671875 236.101562 211.902344 237.6875 211.902344 239.464844 M 215.214844 233.601562 C 214.621094 231.816406 213.742188 230.265625 212.617188 228.972656 C 211.484375 227.683594 210.09375 226.652344 208.464844 225.929688 C 206.84375 225.207031 204.988281 224.84375 202.949219 224.84375 C 200.960938 224.84375 199.125 225.207031 197.511719 225.929688 C 195.894531 226.652344 194.496094 227.671875 193.363281 228.972656 C 192.226562 230.265625 191.339844 231.816406 190.722656 233.601562 C 190.105469 235.371094 189.796875 237.34375 189.796875 239.464844 C 189.796875 241.566406 190.097656 243.53125 190.691406 245.300781 C 191.285156 247.078125 192.160156 248.628906 193.285156 249.921875 C 194.414062 251.214844 195.820312 252.242188 197.449219 252.964844 C 199.078125 253.679688 200.941406 254.050781 202.988281 254.050781 C 204.972656 254.050781 206.796875 253.679688 208.40625 252.964844 C 210.015625 252.242188 211.410156 251.214844 212.558594 249.921875 C 213.695312 248.628906 214.582031 247.078125 215.191406 245.300781 C 215.800781 243.53125 216.101562 241.566406 216.101562 239.464844 C 216.101562 237.34375 215.808594 235.375 215.214844 233.601562 "/>
<path fill-rule="nonzero" fill="rgb(13.725281%, 9.803772%, 8.627319%)" fill-opacity="1" d="M 104.285156 239.464844 C 104.285156 241.238281 104.050781 242.828125 103.585938 244.167969 C 103.125 245.5 102.488281 246.625 101.6875 247.503906 C 100.894531 248.394531 99.949219 249.066406 98.875 249.519531 C 96.722656 250.421875 93.988281 250.414062 91.820312 249.511719 C 90.738281 249.066406 89.792969 248.394531 88.996094 247.503906 C 88.195312 246.625 87.554688 245.5 87.085938 244.15625 C 86.617188 242.820312 86.378906 241.238281 86.378906 239.464844 C 86.378906 237.6875 86.613281 236.101562 87.078125 234.75 C 87.539062 233.421875 88.171875 232.292969 88.976562 231.40625 C 89.769531 230.519531 90.722656 229.835938 91.804688 229.382812 C 92.890625 228.921875 94.078125 228.691406 95.332031 228.691406 C 96.582031 228.691406 97.773438 228.921875 98.859375 229.382812 C 99.941406 229.835938 100.894531 230.519531 101.6875 231.40625 C 102.492188 232.292969 103.125 233.421875 103.585938 234.75 C 104.050781 236.101562 104.285156 237.6875 104.285156 239.464844 M 105 228.972656 C 103.867188 227.683594 102.46875 226.652344 100.851562 225.929688 C 99.222656 225.207031 97.367188 224.84375 95.332031 224.84375 C 93.335938 224.84375 91.503906 225.207031 89.890625 225.929688 C 88.269531 226.652344 86.875 227.671875 85.738281 228.972656 C 84.605469 230.265625 83.722656 231.816406 83.101562 233.601562 C 82.484375 235.371094 82.175781 237.34375 82.175781 239.464844 C 82.175781 241.566406 82.480469 243.53125 83.074219 245.300781 C 83.664062 247.078125 84.539062 248.628906 85.667969 249.921875 C 86.796875 251.214844 88.199219 252.242188 89.832031 252.964844 C 91.460938 253.679688 93.320312 254.050781 95.375 254.050781 C 97.355469 254.050781 99.179688 253.679688 100.78125 252.964844 C 102.394531 252.242188 103.792969 251.214844 104.933594 249.921875 C 106.074219 248.628906 106.964844 247.078125 107.574219 245.300781 C 108.183594 243.53125 108.488281 241.566406 108.488281 239.464844 C 108.488281 237.34375 108.183594 235.375 107.589844 233.601562 C 107 231.816406 106.128906 230.265625 105 228.972656 "/>
<path fill-rule="nonzero" fill="rgb(13.725281%, 9.803772%, 8.627319%)" fill-opacity="1" d="M 134.007812 225.652344 L 128.441406 225.699219 L 115.921875 237.574219 L 115.921875 225.882812 L 112.125 225.882812 L 112.125 253.242188 L 115.921875 253.242188 L 115.9375 238.527344 L 130.082031 253.242188 L 135.21875 253.242188 L 120.65625 238.230469 Z M 134.007812 225.652344 "/>
<path fill-rule="nonzero" fill="rgb(13.725281%, 9.803772%, 8.627319%)" fill-opacity="1" d="M 83.078125 225.652344 L 77.507812 225.699219 L 64.992188 237.574219 L 64.992188 225.882812 L 61.195312 225.882812 L 61.195312 253.242188 L 64.992188 253.242188 L 65 238.527344 L 79.152344 253.242188 L 84.28125 253.242188 L 69.726562 238.230469 Z M 83.078125 225.652344 "/>
</svg>
